<svg width="334" height="86" viewBox="0 0 334 86" fill="none" xmlns="http://www.w3.org/2000/svg">
<g clip-path="url(#clip0_58_1079)">
<path fill-rule="evenodd" clip-rule="evenodd" d="M23.0538 41.0867L28.5941 54.2476L38.2799 37.4792L23.0538 41.0867Z" fill="#D01B28"/>
<path fill-rule="evenodd" clip-rule="evenodd" d="M26.1754 22.1924L46.0386 24.0749L31.7896 15.0002L26.1754 22.1924Z" fill="#FC9BB4"/>
<path fill-rule="evenodd" clip-rule="evenodd" d="M29.5462 22.4399L46.8884 24.3625L34.0435 16.0205L29.5462 22.4399Z" fill="url(#paint0_linear_58_1079)"/>
<path fill-rule="evenodd" clip-rule="evenodd" d="M14.7186 50.8304L24.8592 60.7071L28.5982 54.2339L14.7186 50.8304Z" fill="#902130"/>
<path fill-rule="evenodd" clip-rule="evenodd" d="M16.0644 38.8488L16.6686 45.0547L23.0597 41.0885L15.401 31.5996L16.0644 38.8488Z" fill="#CA2A44"/>
<path fill-rule="evenodd" clip-rule="evenodd" d="M13.7964 22.4901L26.1756 22.1904L21.4774 15.3561L13.7964 22.4901Z" fill="#F5505F"/>
<path fill-rule="evenodd" clip-rule="evenodd" d="M21.5329 15.3475L21.477 15.3571L26.1729 22.1936L31.789 14.9998L21.5329 15.3475Z" fill="#FA6276"/>
<path fill-rule="evenodd" clip-rule="evenodd" d="M33.067 10.3009L31.7881 15.0032L44.336 11.9374L33.067 10.3009Z" fill="#FA6276"/>
<path fill-rule="evenodd" clip-rule="evenodd" d="M52.7743 9.20776L53.3338 4.74549L51.4374 6.91108L49.7596 12.1735L51.0546 3.68182L47.5317 8.4716L46.3478 10.1671L47.3159 10.7443L49.7667 12.1716L51.9401 13.8573L56.3911 5.8577L52.7743 9.20776Z" fill="#DD9B99"/>
<path fill-rule="evenodd" clip-rule="evenodd" d="M21.5324 15.3479L31.788 15.0008L33.0665 10.2992L21.5324 15.3479Z" fill="#F47689"/>
<path fill-rule="evenodd" clip-rule="evenodd" d="M54.7899 15.0618L58.263 16.9841L62.0345 10.2166L54.7899 15.0618Z" fill="#C93B35"/>
<path fill-rule="evenodd" clip-rule="evenodd" d="M50.2078 16.862L49.7674 12.171L46.3735 10.1211L50.2078 16.862Z" fill="#FA6276"/>
<path fill-rule="evenodd" clip-rule="evenodd" d="M59.0291 11.341L55.3692 13.4325L54.7917 15.0689L62.0345 10.2165L59.0291 11.341Z" fill="#DD9B99"/>
<path fill-rule="evenodd" clip-rule="evenodd" d="M49.7595 12.1732L51.4372 6.91099L51.0544 3.68188L49.7595 12.1732Z" fill="#CA6E55"/>
<path fill-rule="evenodd" clip-rule="evenodd" d="M50.2024 16.8494L51.936 13.8524L49.7676 12.1714L50.2024 16.8494Z" fill="#FC9BB4"/>
<path fill-rule="evenodd" clip-rule="evenodd" d="M55.8846 9.77819L55.7249 10.801L55.6464 11.3832L59.7992 8.33978L55.8846 9.77819Z" fill="#CDA993"/>
<path fill-rule="evenodd" clip-rule="evenodd" d="M53.9503 8.1099L53.3337 4.74585L52.7742 9.20801L53.9503 8.1099Z" fill="#AF2A1B"/>
<path fill-rule="evenodd" clip-rule="evenodd" d="M54.824 15.0797L55.3687 13.4321L59.0286 11.3406L59.7993 8.33972L55.6466 11.3831L55.725 10.8009L55.8848 9.77813L56.392 5.85864L51.9415 13.8601L54.824 15.0797Z" fill="#99151C"/>
<path fill-rule="evenodd" clip-rule="evenodd" d="M26.178 22.1891L15.3976 31.602L13.7972 22.4893L26.178 22.1891Z" fill="#F34259"/>
<path fill-rule="evenodd" clip-rule="evenodd" d="M15.4003 31.598L16.6727 44.9192L10.3224 35.6865L15.4003 31.598Z" fill="#C0192A"/>
<path fill-rule="evenodd" clip-rule="evenodd" d="M16.7264 44.8954L14.7331 50.8545L10.3143 35.6748L16.7264 44.8954Z" fill="#BE1829"/>
<path fill-rule="evenodd" clip-rule="evenodd" d="M23.068 41.0757L28.6014 54.242L16.7558 44.9657L23.068 41.0757Z" fill="#B0122B"/>
<path fill-rule="evenodd" clip-rule="evenodd" d="M16.7205 44.9087L14.7359 50.8368L28.6044 54.2406L16.7205 44.9087Z" fill="#A5061C"/>
<path fill-rule="evenodd" clip-rule="evenodd" d="M26.1771 22.1887L23.0528 41.0919L38.2739 37.509L26.1771 22.1887Z" fill="#E84154"/>
<path fill-rule="evenodd" clip-rule="evenodd" d="M26.1765 22.1902L23.0572 41.0929L15.3974 31.601L26.1765 22.1902Z" fill="#DE2A43"/>
<path fill-rule="evenodd" clip-rule="evenodd" d="M13.7975 22.4885L15.4003 31.598L10.2749 35.7765L13.7975 22.4885Z" fill="#DF2C46"/>
<path fill-rule="evenodd" clip-rule="evenodd" d="M31.7887 15.0028L50.2123 16.8327L46.0234 24.083L31.7887 15.0028Z" fill="#FE90A9"/>
<path fill-rule="evenodd" clip-rule="evenodd" d="M46.3804 10.1163L50.2099 16.8375L44.3297 11.943L46.3804 10.1163Z" fill="#F97689"/>
<path fill-rule="evenodd" clip-rule="evenodd" d="M31.788 15.0028L44.3306 11.9378L50.2127 16.8351L31.788 15.0028Z" fill="#F97487"/>
<path fill-rule="evenodd" clip-rule="evenodd" d="M26.1732 22.1782L46.036 24.0643L38.2636 37.5128L26.1732 22.1782Z" fill="#F37184"/>
<path fill-rule="evenodd" clip-rule="evenodd" d="M43.0949 52.6366L28.5982 54.2413L38.2659 37.5085L43.0949 52.6366Z" fill="#AE0E23"/>
<path fill-rule="evenodd" clip-rule="evenodd" d="M57.9107 40.4881L46.03 24.0777L61.3371 32.0339L57.9107 40.4881Z" fill="#EF556B"/>
<path fill-rule="evenodd" clip-rule="evenodd" d="M38.8176 64.7209L24.8624 60.7078L28.5969 54.2363L38.8176 64.7209Z" fill="#740011"/>
<path fill-rule="evenodd" clip-rule="evenodd" d="M48.5303 57.5657L42.8478 60.1461L43.0902 52.6332L55.1453 54.5157L48.5303 57.5657Z" fill="#CA2A44"/>
<path fill-rule="evenodd" clip-rule="evenodd" d="M63.8416 51.3485L57.9124 40.4882L66.1853 41.135L63.8416 51.3485Z" fill="#F5505F"/>
<path fill-rule="evenodd" clip-rule="evenodd" d="M66.1645 41.0823L66.1842 41.1355L57.9099 40.4913L61.3376 32.0352L66.1645 41.0823Z" fill="#FA6276"/>
<path fill-rule="evenodd" clip-rule="evenodd" d="M64.7718 28.5792L61.3356 32.0363L57.7181 19.6467L64.7718 28.5792Z" fill="#FA6276"/>
<path fill-rule="evenodd" clip-rule="evenodd" d="M66.164 41.0827L61.3367 32.0363L64.7735 28.5797L66.164 41.0827Z" fill="#F47689"/>
<path fill-rule="evenodd" clip-rule="evenodd" d="M50.2085 16.8387L54.8 15.063L58.2771 16.9808L50.2085 16.8387Z" fill="#FA6276"/>
<path fill-rule="evenodd" clip-rule="evenodd" d="M50.208 16.8408L51.9432 13.8455L54.7997 15.063L50.208 16.8408Z" fill="#FC9BB4"/>
<path fill-rule="evenodd" clip-rule="evenodd" d="M57.9119 40.4854L55.1435 54.5198L63.8421 51.3478L57.9119 40.4854Z" fill="#F34259"/>
<path fill-rule="evenodd" clip-rule="evenodd" d="M55.1463 54.5149L42.9635 60.0756L54.141 60.9534L55.1463 54.5149Z" fill="#C0192A"/>
<path fill-rule="evenodd" clip-rule="evenodd" d="M42.9583 60.0167L38.7891 64.7216L54.1563 60.954L42.9583 60.0167Z" fill="#BE1829"/>
<path fill-rule="evenodd" clip-rule="evenodd" d="M43.098 52.6184L28.5842 54.2373L42.8818 60.0257L43.098 52.6184Z" fill="#902130"/>
<path fill-rule="evenodd" clip-rule="evenodd" d="M42.9499 60.0284L38.8031 64.7092L28.5874 54.2332L42.9499 60.0284Z" fill="#7A0012"/>
<path fill-rule="evenodd" clip-rule="evenodd" d="M57.9135 40.4849L43.0905 52.6392L38.2613 37.5147L57.9135 40.4849Z" fill="#C71C2C"/>
<path fill-rule="evenodd" clip-rule="evenodd" d="M57.9123 40.4868L43.0869 52.6371L55.1444 54.5187L57.9123 40.4868Z" fill="#DE2A43"/>
<path fill-rule="evenodd" clip-rule="evenodd" d="M63.8428 51.3476L55.1459 54.5159L54.0861 61.0396L63.8428 51.3476Z" fill="#DF2C46"/>
<path fill-rule="evenodd" clip-rule="evenodd" d="M61.3355 32.0361L50.2119 16.836L46.0192 24.0824L61.3355 32.0361Z" fill="#EE5268"/>
<path fill-rule="evenodd" clip-rule="evenodd" d="M58.2744 16.9665L50.2079 16.8368L57.7171 19.6546L58.2744 16.9665Z" fill="#D63B4F"/>
<path fill-rule="evenodd" clip-rule="evenodd" d="M61.3415 32.0535L57.7207 19.6513L50.211 16.8375L61.3415 32.0535Z" fill="#DA3B50"/>
<path fill-rule="evenodd" clip-rule="evenodd" d="M57.9245 40.4829L46.0331 24.072L38.2547 37.5206L57.9245 40.4829Z" fill="#E63E51"/>
<path d="M108.216 26.5293C108.216 26.5293 106.776 27.5193 106.731 31.2093L106.731 38.9044L106.686 40.8395C106.416 41.0195 105.921 41.3795 105.561 41.6045C102.906 43.4945 99.5308 44.8445 95.2559 44.8444C86.931 44.8443 79.4611 39.0392 77.571 30.579C77.301 29.274 77.121 27.969 77.121 26.664C77.1209 18.2938 82.9258 10.8238 91.4306 8.97883C92.7356 8.66383 94.0856 8.52884 95.3456 8.52885C97.7305 8.52888 100.07 9.0239 102.23 9.92394C102.41 9.96894 103.265 9.83395 103.4 9.47394L104.93 15.6391C102.5 12.534 98.7205 10.6439 94.7156 10.6439C93.8156 10.6439 92.8706 10.7789 91.9706 10.9589C86.7957 12.0838 82.7008 16.1339 82.0259 21.0839C81.8009 22.569 81.7109 24.009 81.7109 25.449C81.7109 26.844 81.8009 28.239 82.116 29.6791C82.701 32.2891 84.096 35.2592 85.176 36.9242C87.516 40.5693 91.6109 42.7744 95.9759 42.7744C96.9208 42.7744 97.8658 42.6844 98.8108 42.4594C101.241 41.9194 103.086 41.2894 104.481 40.1194L104.481 31.4343C104.391 27.5642 102.906 26.5742 102.906 26.5742L108.216 26.5293ZM124.572 10.5541L123.447 10.5541C122.142 10.5541 120.747 10.6441 119.532 10.7341C119.307 11.0941 119.127 11.4541 119.082 11.8591C118.812 14.0642 118.812 18.3842 118.812 23.0643L118.812 25.7193C120.342 25.7193 122.367 25.6744 124.392 25.6744C128.217 25.6744 131.412 21.9394 131.412 18.1143C131.412 14.2893 128.397 10.7342 124.572 10.5541ZM132.087 44.4847C132.087 44.4847 134.067 43.8548 134.067 42.7747C134.067 42.5497 133.932 42.3247 133.752 42.0547C133.707 42.0097 133.707 41.9647 133.707 41.9197L121.872 27.1594L118.812 27.2044C118.812 33.9995 119.037 38.7245 119.217 41.4696C119.352 42.9996 121.422 44.4397 121.422 44.4397L111.972 44.4846C111.972 44.4846 113.952 43.5846 114.132 41.7395C114.357 38.9945 114.582 34.0894 114.582 26.7543C114.582 19.7792 114.312 14.5141 114.087 11.6341C113.862 9.87904 111.837 9.11401 111.837 9.11401L117.192 9.11406L125.967 9.06914C130.917 9.06918 135.012 13.1643 135.012 18.1144C135.012 22.8394 131.412 26.7095 126.777 27.0694L138.432 41.6048C140.367 43.6748 142.572 44.4848 142.572 44.4848L132.087 44.4847ZM156.234 11.3644L152.094 25.9896L160.059 25.9897C158.394 18.7896 156.999 13.9295 156.234 11.3644ZM147.685 41.7848C147.64 41.9199 147.64 42.0999 147.64 42.2349C147.64 43.7649 149.8 44.3949 149.845 44.4849L142.555 44.4848C142.555 44.4848 144.895 43.3148 145.48 41.6498C147.28 36.5198 148.315 33.5497 150.294 26.7546C153.399 16.0895 154.389 10.9144 154.389 10.5994L154.389 10.5544C154.389 9.74441 152.814 9.06938 152.814 9.06938L163.254 9.06948C163.254 9.06948 161.409 9.56447 161.409 11.1845C161.409 11.2745 161.454 11.3645 161.454 11.4995C161.859 14.1545 162.669 19.1046 164.424 26.7548C165.999 33.7749 167.529 39.085 168.384 41.965C168.924 43.7651 170.454 44.4401 170.454 44.4401L160.959 44.485C160.959 44.485 163.119 43.405 163.119 42.01L163.119 41.785C162.669 38.9949 161.814 34.0449 160.374 27.5197L151.689 27.5197L147.685 41.7848ZM204.483 44.4404L196.923 44.4403L181.758 12.9397C181.578 15.9998 181.353 20.6798 181.353 26.6649C181.353 34.18 181.623 39.1301 181.848 41.8302C181.983 43.7202 183.963 44.4402 183.963 44.4402L174.558 44.4401C174.558 44.4401 176.493 43.3151 176.628 41.8301C176.898 39.1301 177.123 34.135 177.123 26.6649C177.123 19.6448 176.808 14.3347 176.628 11.4546C176.538 9.96961 174.513 9.06958 174.513 9.06958L182.073 9.06965C182.073 9.60966 184.593 15.6398 189.768 26.35C192.783 32.5601 195.438 37.3752 197.283 40.4803C197.463 37.6002 197.643 33.0552 197.642 26.6651C197.642 19.645 197.372 14.3349 197.147 11.4548C197.057 9.9698 195.077 9.06977 195.077 9.06977L204.482 9.06985C204.482 9.06985 202.502 9.56484 202.367 11.4549C202.142 14.2899 201.872 19.6 201.872 26.6651C201.872 34.1802 202.143 39.1303 202.368 41.8303C202.503 43.7204 204.483 44.4404 204.483 44.4404ZM221.756 11.365L217.616 25.9902L225.581 25.9903C223.916 18.7902 222.521 13.9301 221.756 11.365ZM213.206 41.7854C213.161 41.9204 213.161 42.1004 213.161 42.2354C213.161 43.7655 215.321 44.3955 215.366 44.4855L208.076 44.4854C208.076 44.4854 210.416 43.3154 211.001 41.6504C212.801 36.5204 213.836 33.5503 215.816 26.7552C218.921 16.0901 219.911 10.915 219.911 10.6L219.911 10.555C219.911 9.745 218.336 9.06998 218.336 9.06998L228.775 9.07007C228.775 9.07007 226.931 9.56506 226.931 11.1851C226.931 11.2751 226.976 11.3651 226.976 11.5001C227.381 14.1551 228.191 19.1052 229.946 26.7554C231.521 33.7755 233.051 39.0856 233.906 41.9656C234.446 43.7657 235.976 44.4407 235.976 44.4407L226.481 44.4856C226.481 44.4856 228.641 43.4056 228.641 42.0106L228.641 41.7856C228.191 38.9955 227.336 34.0454 225.896 27.5203L217.211 27.5203L213.206 41.7854ZM259.595 9.07035C264.23 9.07039 267.515 8.71042 267.515 8.71042C267.515 8.71042 266.975 10.9154 266.75 12.7155C266.435 14.9655 266.435 18.9706 266.435 18.9706C266.435 18.9706 264.545 10.6004 259.28 10.6004L257.075 10.6004L254.6 10.6003C254.42 12.8954 254.015 18.0704 254.015 25.1356L254.015 26.8456C254.06 34.1807 254.285 40.4808 254.51 41.9658C254.735 43.4508 256.625 44.4859 256.625 44.4859L247.175 44.4858C247.175 44.4858 249.065 43.8108 249.29 41.9658C249.56 39.4907 249.785 35.3507 249.785 29.2756L249.785 26.8455C249.695 18.8354 249.38 13.0753 249.2 10.6003L246.86 10.6003L244.295 10.6002C239.255 10.9152 237.5 18.9703 237.5 18.9703C237.5 18.9703 237.5 14.9652 237.185 12.7152C236.96 10.9152 236.42 8.71013 236.42 8.71013C236.42 8.71013 239.705 9.07017 244.34 9.07021L259.595 9.07035Z" fill="#F60030"/>
<path d="M86.7586 51.5087L86.7586 52.3668L83.9636 52.3667L83.9637 60.6089L83.0537 60.6089L83.0536 52.3667L80.2587 52.3667L80.2587 51.5087L86.7586 51.5087ZM93.4696 60.609L92.6246 58.3729L88.3087 58.3729L87.4637 60.6089L86.5017 60.6089L89.9986 51.5088L90.9346 51.5088L94.4316 60.609L93.4696 60.609ZM88.6336 57.5149L92.2996 57.5149L90.4666 52.6398L88.6336 57.5149ZM100.383 51.5089L101.319 51.5089L98.2905 58.62C97.9872 59.348 97.6015 59.8723 97.1335 60.193C96.6655 60.5136 96.0849 60.6523 95.3915 60.609L95.3915 59.777C95.8769 59.829 96.2755 59.7596 96.5875 59.569C96.9082 59.3696 97.1725 59.0273 97.3805 58.542L97.5625 58.113L94.4295 51.5088L95.3655 51.5088L97.9915 57.0989L100.383 51.5089ZM108.343 51.5089L109.253 51.509L109.253 60.6091L108.343 60.6091L108.343 56.358L103.403 56.358L103.403 60.609L102.493 60.609L102.493 51.5089L103.403 51.5089L103.403 55.5L108.343 55.5L108.343 51.5089ZM117.569 60.6092L116.529 60.6092L114.059 56.7221L111.589 60.6091L110.549 60.6091L113.539 55.9161L110.744 51.509L111.771 51.509L114.059 55.0971L116.347 51.509L117.374 51.509L114.579 55.9161L117.569 60.6092ZM124.928 60.6092L124.083 58.3732L119.767 58.3732L118.922 60.6092L117.96 60.6092L121.457 51.5091L122.393 51.5091L125.89 60.6092L124.928 60.6092ZM120.092 57.5151L123.758 57.5152L121.925 52.6401L120.092 57.5151ZM131.842 51.5092L132.778 51.5092L129.749 58.6203C129.446 59.3483 129.06 59.8726 128.592 60.1933C128.124 60.5139 127.543 60.6526 126.85 60.6093L126.85 59.7772C127.335 59.8293 127.734 59.7599 128.046 59.5693C128.367 59.3699 128.631 59.0276 128.839 58.5422L129.021 58.1132L125.888 51.5091L126.824 51.5091L129.45 57.0992L131.842 51.5092ZM137.682 60.7654C136.304 60.7653 135.165 60.3103 134.263 59.4003C133.362 58.4903 132.911 57.3766 132.911 56.0592C132.911 54.7419 133.362 53.6282 134.263 52.7182C135.165 51.8082 136.304 51.3532 137.682 51.3532C138.523 51.3532 139.294 51.5569 139.996 51.9642C140.698 52.3629 141.24 52.9046 141.621 53.5893L140.815 54.0573C140.529 53.5026 140.105 53.0606 139.541 52.7313C138.978 52.4019 138.358 52.2372 137.682 52.2372C136.547 52.2372 135.62 52.6055 134.9 53.3422C134.181 54.0789 133.821 54.9846 133.821 56.0593C133.821 57.1339 134.181 58.0396 134.9 58.7763C135.62 59.513 136.547 59.8813 137.682 59.8813C138.358 59.8814 138.978 59.7167 139.541 59.3874C140.105 59.058 140.529 58.616 140.815 58.0613L141.621 58.5164C141.249 59.201 140.707 59.747 139.996 60.1544C139.294 60.5617 138.523 60.7654 137.682 60.7654ZM143.118 60.6094L143.118 51.5093L144.028 51.5093L144.028 54.8893L146.368 54.8893C147.182 54.8894 147.863 55.1624 148.409 55.7084C148.955 56.2544 149.228 56.9347 149.228 57.7494C149.228 58.5641 148.955 59.2444 148.409 59.7904C147.863 60.3364 147.182 60.6094 146.368 60.6094L143.118 60.6094ZM150.203 60.6095L150.203 51.5093L151.113 51.5093L151.113 60.6095L150.203 60.6095ZM144.028 59.7514L146.368 59.7514C146.931 59.7514 147.395 59.5651 147.759 59.1924C148.131 58.8111 148.318 58.3301 148.318 57.7494C148.318 57.1687 148.131 56.6921 147.759 56.3194C147.395 55.938 146.931 55.7474 146.368 55.7474L144.028 55.7473L144.028 59.7514ZM162.948 51.5094L162.948 60.6096L162.038 60.6096L162.038 52.3675L157.358 52.3674L157.358 60.6095L156.448 60.6095L156.448 51.5094L162.948 51.5094ZM168.279 51.5095C169.094 51.5095 169.774 51.7825 170.32 52.3285C170.866 52.8745 171.139 53.5549 171.139 54.3696C171.139 55.1842 170.866 55.8646 170.321 56.4106C169.775 56.9566 169.094 57.2296 168.28 57.2296L165.94 57.2296L165.94 60.6096L165.03 60.6096L165.03 51.5095L168.279 51.5095ZM168.28 56.3716C168.843 56.3716 169.307 56.1852 169.671 55.8126C170.043 55.4312 170.229 54.9502 170.229 54.3696C170.229 53.7889 170.043 53.3122 169.67 52.9395C169.306 52.5582 168.843 52.3675 168.28 52.3675L165.94 52.3675L165.94 56.3716L168.28 56.3716ZM173.607 59.7517L178.027 59.7517L178.027 60.6097L172.697 60.6097L172.697 51.5095L177.962 51.5096L177.962 52.3676L173.607 52.3676L173.607 55.5916L177.637 55.5916L177.637 56.4497L173.607 56.4496L173.607 59.7517ZM187.911 51.5097L187.911 60.6098L187.001 60.6098L187.001 52.8877L183.816 58.2177L183.686 58.2177L180.501 52.8876L180.501 60.6097L179.591 60.6097L179.591 51.5096L180.722 51.5096L183.751 56.5797L186.78 51.5097L187.911 51.5097ZM195.838 60.6099L195.838 53.1998L190.768 60.6098L189.988 60.6098L189.988 51.5097L190.898 51.5097L190.898 58.9198L195.968 51.5097L196.748 51.5098L196.748 60.6099L195.838 60.6099ZM204.128 51.5098L205.064 51.5098L202.035 58.6209C201.732 59.3489 201.346 59.8733 200.878 60.1939C200.41 60.5146 199.829 60.6533 199.136 60.6099L199.136 59.7779C199.621 59.8299 200.02 59.7606 200.332 59.5699C200.653 59.3706 200.917 59.0282 201.125 58.5429L201.307 58.1139L198.174 51.5098L199.11 51.5098L201.736 57.0999L204.128 51.5098ZM214.558 51.5099L214.558 60.6101L213.648 60.6101L213.648 52.8879L210.463 58.218L210.333 58.218L207.148 52.8879L207.148 60.61L206.238 60.61L206.238 51.5098L207.369 51.5099L210.398 56.58L213.427 51.5099L214.558 51.5099ZM219.885 57.0091L219.885 56.177L224.565 56.1771L224.565 57.0091L219.885 57.0091ZM236.259 60.6103L235.063 60.6102L230.799 56.2031L230.799 60.6102L229.889 60.6102L229.889 51.5101L230.799 51.5101L230.799 55.6701L234.933 51.5101L236.129 51.5101L231.761 55.9301L236.259 60.6103ZM236.585 60.6103L236.585 59.8043C237.218 59.8909 237.69 59.6959 238.002 59.2193C238.322 58.7339 238.483 57.8499 238.483 56.5672L238.483 51.5101L244.385 51.5102L244.385 60.6103L243.475 60.6103L243.475 52.3682L239.393 52.3682L239.393 56.5932C239.393 57.4166 239.328 58.1056 239.198 58.6603C239.068 59.2149 238.873 59.6396 238.613 59.9343C238.362 60.2203 238.071 60.4153 237.742 60.5193C237.421 60.6146 237.036 60.6449 236.585 60.6103ZM252.527 60.6104L251.682 58.3744L247.366 58.3743L246.521 60.6104L245.559 60.6103L249.056 51.5102L249.992 51.5102L253.489 60.6104L252.527 60.6104ZM247.691 57.5163L251.357 57.5163L249.524 52.6413L247.691 57.5163ZM258.578 60.7665C257.2 60.7665 256.06 60.3114 255.159 59.4014C254.258 58.4914 253.807 57.3777 253.807 56.0603C253.807 54.743 254.258 53.6293 255.159 52.7193C256.06 51.8093 257.2 51.3543 258.578 51.3543C259.419 51.3543 260.19 51.558 260.892 51.9653C261.594 52.364 262.136 52.9057 262.517 53.5904L261.711 54.0584C261.425 53.5037 261 53.0617 260.437 52.7324C259.874 52.403 259.254 52.2383 258.578 52.2383C257.443 52.2383 256.515 52.6067 255.796 53.3433C255.077 54.08 254.717 54.9857 254.717 56.0604C254.717 57.135 255.077 58.0407 255.796 58.7774C256.515 59.5141 257.443 59.8824 258.578 59.8825C259.254 59.8825 259.874 59.7178 260.437 59.3885C261 59.0591 261.425 58.6171 261.711 58.0625L262.517 58.5175C262.144 59.2021 261.603 59.7481 260.892 60.1555C260.19 60.5628 259.419 60.7665 258.578 60.7665ZM268.264 60.7666C266.886 60.7665 265.747 60.3115 264.845 59.4015C263.944 58.4915 263.493 57.3778 263.493 56.0604C263.493 54.7431 263.944 53.6294 264.845 52.7194C265.747 51.8094 266.886 51.3544 268.264 51.3544C269.105 51.3544 269.876 51.5581 270.578 51.9654C271.28 52.3641 271.822 52.9058 272.203 53.5905L271.397 54.0585C271.111 53.5038 270.687 53.0618 270.123 52.7324C269.56 52.4031 268.94 52.2384 268.264 52.2384C267.129 52.2384 266.202 52.6067 265.482 53.3434C264.763 54.0801 264.403 54.9858 264.403 56.0604C264.403 57.1351 264.763 58.0408 265.482 58.7775C266.202 59.5142 267.129 59.8825 268.264 59.8825C268.94 59.8825 269.56 59.7179 270.123 59.3886C270.687 59.0592 271.111 58.6172 271.397 58.0625L272.203 58.5176C271.831 59.2022 271.289 59.7482 270.578 60.1556C269.876 60.5629 269.105 60.7666 268.264 60.7666ZM279.631 60.6107L278.786 58.3746L274.47 58.3746L273.625 60.6106L272.663 60.6106L276.16 51.5105L277.096 51.5105L280.593 60.6107L279.631 60.6107ZM274.795 57.5166L278.461 57.5166L276.628 52.6415L274.795 57.5166Z" fill="#717D92"/>
</g>
<defs>
<linearGradient id="paint0_linear_58_1079" x1="44.3192" y1="23.7211" x2="32.7602" y2="20.5062" gradientUnits="userSpaceOnUse">
<stop stop-color="white"/>
<stop offset="1" stop-color="white" stop-opacity="0"/>
</linearGradient>
<clipPath id="clip0_58_1079">
<rect width="334" height="86" fill="white"/>
</clipPath>
</defs>
</svg>
