<svg width="12" height="12" viewBox="0 0 12 12" fill="none" xmlns="http://www.w3.org/2000/svg">
<path d="M0.295798 6.71743L5.2958 11.7174C5.3909 11.8085 5.50304 11.8798 5.6258 11.9274C5.86926 12.0274 6.14233 12.0274 6.3858 11.9274C6.50855 11.8798 6.62069 11.8085 6.7158 11.7174L11.7158 6.71743C11.809 6.62419 11.883 6.5135 11.9335 6.39168C11.9839 6.26986 12.0099 6.13929 12.0099 6.00743C12.0099 5.74113 11.9041 5.48573 11.7158 5.29743C11.5275 5.10912 11.2721 5.00334 11.0058 5.00334C10.7395 5.00334 10.4841 5.10912 10.2958 5.29743L7.0058 8.59743L7.0058 1.00743C7.0058 0.742211 6.90044 0.487856 6.7129 0.30032C6.52537 0.112784 6.27101 0.00742767 6.0058 0.00742764C5.74058 0.00742762 5.48623 0.112784 5.29869 0.30032C5.11115 0.487856 5.0058 0.742211 5.0058 1.00743L5.0058 8.59743L1.7158 5.29743C1.62283 5.2037 1.51223 5.1293 1.39037 5.07854C1.26851 5.02777 1.13781 5.00163 1.0058 5.00163C0.873786 5.00163 0.74308 5.02777 0.62122 5.07854C0.499361 5.1293 0.388761 5.2037 0.295798 5.29743C0.20207 5.39039 0.127674 5.50099 0.0769049 5.62285C0.026136 5.74471 -1.37171e-06 5.87541 -1.38325e-06 6.00743C-1.39479e-06 6.13944 0.0261359 6.27014 0.0769048 6.392C0.127674 6.51386 0.20207 6.62446 0.295798 6.71743Z" fill="#858BA6"/>
</svg>
