<svg width="241" height="241" viewBox="0 0 241 241" fill="none" xmlns="http://www.w3.org/2000/svg">
<path d="M120.394 24.0999C118.97 24.0927 118.186 25.0639 117.967 26.2014L112.079 46.0646C98.0613 47.6357 84.7765 53.1512 73.7677 61.9706C67.6511 58.6497 61.5369 55.3118 55.4155 52.0101C54.2828 51.4004 53.2899 51.4462 52.3741 52.3692C51.4559 53.2922 51.7162 54.6515 52.2343 55.6299L62.0406 73.6929C53.1764 84.7155 47.6312 98.0326 46.0527 112.089C39.3673 114.072 32.6724 116.039 25.9943 118.034C24.7652 118.403 24.0976 119.138 24.1 120.44C24.1048 121.741 25.2472 122.519 26.3076 122.845L46.043 128.691C47.5765 142.779 53.0931 156.138 61.9466 167.203C58.6088 173.354 55.2517 179.504 51.9307 185.659C51.3209 186.792 51.3667 187.78 52.2922 188.698C53.2128 189.614 54.572 189.358 55.5505 188.843L73.7147 178.983C84.734 187.833 98.0418 193.368 112.087 194.942C114.068 201.63 116.039 208.327 118.035 215.006C118.403 216.235 119.138 216.902 120.44 216.9C121.741 216.895 122.52 215.753 122.845 214.692L128.692 194.957C142.811 193.418 156.196 187.872 167.266 178.974L185.505 188.879C186.828 189.554 187.722 189.672 188.734 188.669C189.749 187.667 189.616 186.423 188.968 185.464L179.039 167.165C187.873 156.111 193.382 142.772 194.923 128.706L214.765 122.826C216.177 122.368 216.893 121.821 216.9 120.394C216.907 118.97 215.936 118.186 214.798 117.967L194.868 112.06C193.294 98.0302 187.772 84.7347 178.945 73.717L188.802 55.5673C189.474 54.2418 189.592 53.3501 188.59 52.3354C188.382 52.1121 188.132 51.9322 187.855 51.806C187.577 51.6798 187.277 51.6099 186.973 51.6004C186.404 51.6021 185.849 51.7788 185.384 52.1065L167.199 61.9803C156.144 53.1033 142.785 47.5681 128.692 46.0261L122.826 26.2352C122.368 24.8229 121.821 24.1071 120.394 24.0999ZM120.392 34.1641V108.97C118.443 108.99 116.531 109.503 114.834 110.462L102.835 95.26L115.4 51.5353L117.087 45.6525L120.392 34.1641ZM130.477 52.0559C141.8 53.6933 152.535 58.129 161.711 64.9614L138.1 77.7778L130.477 52.0559ZM110.289 52.1161L102.712 77.679C94.901 73.4326 87.0853 69.203 79.2721 64.959C88.3922 58.1831 99.0482 53.7709 110.289 52.1161ZM59.4065 59.4064L97.0073 96.9301L96.988 96.9855C92.1994 98.405 87.4155 99.8293 82.6244 101.246L68.1934 75.2353L65.2459 69.9212L59.4065 59.4064ZM181.468 59.4498L173.412 67.5088L169.38 71.5383L143.949 96.9711L143.769 96.918L139.541 82.6605L165.726 68.1643L168.878 66.4243L171.023 65.2338L181.468 59.4498ZM175.978 79.1828C182.79 88.3226 187.225 99.0113 188.884 110.289L163.222 102.683L175.978 79.1828ZM65.0242 79.2021L77.7731 102.685C69.208 105.216 60.6525 107.765 52.0897 110.301C53.7571 99.0228 58.2019 88.3361 65.0242 79.2021ZM145.499 102.77L189.462 115.398L195.277 117.07L206.833 120.391H132.027C132.008 118.422 131.484 116.49 130.506 114.781L145.499 102.77ZM108.973 120.391L108.968 120.5C108.968 122.423 109.45 124.315 110.368 126.004L95.195 137.951L80.1542 133.642L51.5234 125.448V125.443L45.6478 123.761L34.0485 120.44L108.973 120.391ZM188.946 130.475C187.31 141.787 182.881 152.514 176.058 161.684L163.253 138.09L188.946 130.475ZM52.0825 130.482L77.7418 138.086C73.464 145.954 69.2056 153.828 64.9302 161.696C58.1222 152.52 53.7067 141.792 52.0825 130.482ZM126.062 130.595L138.016 145.564L133.671 160.737L125.44 189.474L123.758 195.352L120.437 206.951L120.389 132.025C122.418 132.029 124.525 131.499 126.062 130.595ZM158.363 139.536L172.848 165.709L175.783 171.009L181.618 181.55L173.486 173.416L169.454 169.387L143.891 143.824L158.363 139.536ZM96.9688 143.952C98.3955 148.772 99.8294 153.582 101.254 158.402L75.2595 172.823L69.9406 175.773L59.3246 181.666L96.9688 143.952ZM138.117 163.15L161.783 176.002C152.587 182.847 141.827 187.285 130.48 188.915L138.117 163.15ZM102.69 163.251C105.221 171.806 107.766 180.355 110.298 188.908C99.0305 187.241 88.3527 182.803 79.2239 175.99L102.69 163.251Z" fill="#2A3B4F"/>
<path d="M110.86 19.28V0H115.634L125.58 12.8766V0H130.14V19.28H125.216L115.42 6.70703V19.28H110.86ZM110.86 234.606L115.519 234.252C115.798 235.479 116.364 236.382 117.215 236.958C118.078 237.534 119.237 237.821 120.693 237.821C122.235 237.821 123.394 237.567 124.17 237.06C124.958 236.542 125.351 235.941 125.351 235.255C125.351 234.814 125.184 234.442 124.85 234.136C124.527 233.823 123.956 233.552 123.137 233.324C122.574 233.172 121.297 232.9 119.305 232.51C116.737 232.01 114.936 231.395 113.901 230.666C112.444 229.641 111.716 228.392 111.716 226.918C111.716 225.97 112.055 225.085 112.735 224.263C113.426 223.432 114.413 222.8 115.697 222.368C116.99 221.934 118.549 221.718 120.372 221.718C123.346 221.718 125.583 222.231 127.082 223.258C128.592 224.283 129.385 225.651 129.46 227.362L124.672 227.528C124.468 226.571 124.026 225.884 123.346 225.47C122.678 225.046 121.67 224.834 120.322 224.834C118.93 224.834 117.841 225.059 117.054 225.509C116.548 225.796 116.295 226.182 116.295 226.665C116.295 227.104 116.532 227.481 117.006 227.796C117.61 228.192 119.076 228.607 121.406 229.039C123.736 229.473 125.455 229.923 126.564 230.389C127.687 230.845 128.561 231.476 129.186 232.281C129.822 233.078 130.14 234.065 130.14 235.243C130.14 236.309 129.762 237.309 129.007 238.241C128.252 239.172 127.185 239.867 125.804 240.325C124.424 240.775 122.705 241 120.647 241C117.647 241 115.344 240.458 113.738 239.373C112.131 238.281 111.172 236.692 110.86 234.606ZM221.72 130.14V110.86H240.518V114.121H226.839V118.396H239.564V121.645H226.839V126.891H241V130.14H221.72ZM3.50896 130.14L0 110.86H3.0366L5.25139 124.103L7.93613 110.86H11.4644L14.0407 124.327L16.2916 110.86H19.28L15.7132 130.14H12.5657L9.64 115.726L6.7239 130.138L3.50896 130.14Z" fill="#2A3B4F"/>
</svg>
