<svg width="12" height="13" viewBox="0 0 12 13" fill="none" xmlns="http://www.w3.org/2000/svg">
    <path d="M6.68833 11.8319L11.3387 7.18159C11.4234 7.09313 11.4897 6.98883 11.534 6.87466C11.627 6.64823 11.627 6.39425 11.534 6.16781C11.4897 6.05364 11.4234 5.94934 11.3387 5.86089L6.68833 1.21054C6.60161 1.12382 6.49866 1.05503 6.38536 1.0081C6.27205 0.961167 6.15062 0.937011 6.02798 0.937011C5.7803 0.937011 5.54276 1.0354 5.36763 1.21054C5.19249 1.38567 5.0941 1.62321 5.0941 1.87089C5.0941 2.11857 5.19249 2.3561 5.36763 2.53124L8.43686 5.59117L1.37763 5.59117C1.13096 5.59117 0.894391 5.68916 0.719969 5.86358C0.545547 6.038 0.447558 6.27457 0.447558 6.52124C0.447558 6.76791 0.545547 7.00447 0.719969 7.17889C0.894391 7.35332 1.13096 7.45131 1.37763 7.45131L8.43686 7.45131L5.36763 10.5112C5.28045 10.5977 5.21126 10.7006 5.16404 10.8139C5.11683 10.9272 5.09251 11.0488 5.09251 11.1716C5.09251 11.2944 5.11683 11.4159 5.16404 11.5293C5.21126 11.6426 5.28045 11.7455 5.36763 11.8319C5.45409 11.9191 5.55696 11.9883 5.67029 12.0355C5.78363 12.0827 5.9052 12.107 6.02798 12.107C6.15076 12.107 6.27232 12.0827 6.38566 12.0355C6.499 11.9883 6.60186 11.9191 6.68833 11.8319Z" fill="#91A2AB"/>
</svg>
