<svg width="12" height="13" viewBox="0 0 12 13" fill="none" xmlns="http://www.w3.org/2000/svg">
<path d="M5.0972 11.8319L0.446846 7.18159C0.362171 7.09313 0.295797 6.98883 0.251531 6.87466C0.158507 6.64823 0.158507 6.39425 0.251531 6.16781C0.295797 6.05364 0.362171 5.94934 0.446845 5.86089L5.0972 1.21054C5.18391 1.12382 5.28686 1.05503 5.40017 1.0081C5.51347 0.961167 5.63491 0.937011 5.75754 0.937011C6.00522 0.937011 6.24276 1.0354 6.41789 1.21054C6.59303 1.38567 6.69142 1.62321 6.69142 1.87089C6.69142 2.11857 6.59303 2.3561 6.41789 2.53124L3.34866 5.59117L10.4079 5.59117C10.6546 5.59117 10.8911 5.68916 11.0656 5.86358C11.24 6.038 11.338 6.27457 11.338 6.52124C11.338 6.76791 11.24 7.00447 11.0656 7.17889C10.8911 7.35332 10.6546 7.45131 10.4079 7.45131L3.34866 7.45131L6.41789 10.5112C6.50507 10.5977 6.57426 10.7006 6.62148 10.8139C6.6687 10.9272 6.69301 11.0488 6.69301 11.1716C6.69301 11.2944 6.6687 11.4159 6.62148 11.5293C6.57426 11.6426 6.50507 11.7455 6.41789 11.8319C6.33143 11.9191 6.22857 11.9883 6.11523 12.0355C6.00189 12.0827 5.88033 12.107 5.75755 12.107C5.63476 12.107 5.5132 12.0827 5.39986 12.0355C5.28652 11.9883 5.18366 11.9191 5.0972 11.8319Z" fill="#91A2AB"/>
</svg>
