<svg width="64" height="66" viewBox="0 0 64 66" fill="none" xmlns="http://www.w3.org/2000/svg">
<path fill-rule="evenodd" clip-rule="evenodd" d="M17.9454 39.0276L22.2604 49.2816L29.7987 36.2192L17.9454 39.0276Z" fill="#D01B28"/>
<path fill-rule="evenodd" clip-rule="evenodd" d="M20.376 24.3071L35.8385 25.7763L24.7454 18.7053L20.376 24.3071Z" fill="#FC9BB4"/>
<path fill-rule="evenodd" clip-rule="evenodd" d="M23 24.5L36.5 26L26.5 19.5L23 24.5Z" fill="url(#paint0_linear_5_465)"/>
<path fill-rule="evenodd" clip-rule="evenodd" d="M11.4572 46.6188L19.3523 54.3139L22.262 49.2719L11.4572 46.6188Z" fill="#902130"/>
<path fill-rule="evenodd" clip-rule="evenodd" d="M12.5051 37.2845L12.9763 42.1192L17.9511 39.0303L11.9877 31.6371L12.5051 37.2845Z" fill="#CA2A44"/>
<path fill-rule="evenodd" clip-rule="evenodd" d="M10.7397 24.5391L20.3765 24.3074L16.7182 18.9826L10.7397 24.5391Z" fill="#F5505F"/>
<path fill-rule="evenodd" clip-rule="evenodd" d="M16.7618 18.9751L16.7182 18.9826L20.3749 24.3091L24.7459 18.7056L16.7618 18.9751Z" fill="#FA6276"/>
<path fill-rule="evenodd" clip-rule="evenodd" d="M25.7403 15.0435L24.7453 18.7066L34.513 16.3199L25.7403 15.0435Z" fill="#FA6276"/>
<path fill-rule="evenodd" clip-rule="evenodd" d="M41.082 14.1926L41.5169 10.7163L40.0409 12.4032L38.7354 16.5027L39.7424 9.88734L37.0005 13.6184L36.079 14.9391L36.8328 15.3889L38.7409 16.5012L40.4331 17.8147L43.8972 11.5832L41.082 14.1926Z" fill="#DD9B99"/>
<path fill-rule="evenodd" clip-rule="evenodd" d="M16.7617 18.9751L24.7456 18.7061L25.7403 15.0436L16.7617 18.9751Z" fill="#F47689"/>
<path fill-rule="evenodd" clip-rule="evenodd" d="M42.6508 18.7526L45.355 20.2507L48.2903 14.9788L42.6508 18.7526Z" fill="#C93B35"/>
<path fill-rule="evenodd" clip-rule="evenodd" d="M39.0843 20.1555L38.7409 16.5012L36.0987 14.9039L39.0843 20.1555Z" fill="#FA6276"/>
<path fill-rule="evenodd" clip-rule="evenodd" d="M45.9507 15.8544L43.1016 17.4833L42.6523 18.7581L48.2903 14.9787L45.9507 15.8544Z" fill="#DD9B99"/>
<path fill-rule="evenodd" clip-rule="evenodd" d="M38.7354 16.5027L40.0409 12.4032L39.7424 9.88736L38.7354 16.5027Z" fill="#CA6E55"/>
<path fill-rule="evenodd" clip-rule="evenodd" d="M39.08 20.1457L40.4292 17.8111L38.7409 16.5012L39.08 20.1457Z" fill="#FC9BB4"/>
<path fill-rule="evenodd" clip-rule="evenodd" d="M43.5029 14.6367L43.3787 15.4335L43.3177 15.8871L46.5503 13.5166L43.5029 14.6367Z" fill="#CDA993"/>
<path fill-rule="evenodd" clip-rule="evenodd" d="M41.9974 13.3372L41.5169 10.7163L41.082 14.1926L41.9974 13.3372Z" fill="#AF2A1B"/>
<path fill-rule="evenodd" clip-rule="evenodd" d="M42.6778 18.7668L43.1016 17.4833L45.9507 15.8544L46.5503 13.5166L43.3177 15.887L43.3787 15.4335L43.5029 14.6367L43.8972 11.5832L40.4336 17.8163L42.6778 18.7668Z" fill="#99151C"/>
<path fill-rule="evenodd" clip-rule="evenodd" d="M20.3781 24.307L11.9868 31.6386L10.7397 24.5391L20.3781 24.307Z" fill="#F34259"/>
<path fill-rule="evenodd" clip-rule="evenodd" d="M11.9875 31.6363L12.9798 42.0142L8.03491 34.8207L11.9875 31.6363Z" fill="#C0192A"/>
<path fill-rule="evenodd" clip-rule="evenodd" d="M13.0209 41.996L11.4699 46.6381L8.02795 34.812L13.0209 41.996Z" fill="#BE1829"/>
<path fill-rule="evenodd" clip-rule="evenodd" d="M17.9564 39.02L22.2656 49.2772L13.0432 42.0495L17.9564 39.02Z" fill="#B0122B"/>
<path fill-rule="evenodd" clip-rule="evenodd" d="M13.0151 42.006L11.4711 46.6235L22.2671 49.2768L13.0151 42.006Z" fill="#A5061C"/>
<path fill-rule="evenodd" clip-rule="evenodd" d="M20.3756 24.3055L17.9459 39.0313L29.7947 36.2421L20.3756 24.3055Z" fill="#E84154"/>
<path fill-rule="evenodd" clip-rule="evenodd" d="M20.376 24.3071L17.9502 39.033L11.9856 31.6372L20.376 24.3071Z" fill="#DE2A43"/>
<path fill-rule="evenodd" clip-rule="evenodd" d="M10.7397 24.5391L11.9888 31.6364L7.99896 34.8911L10.7397 24.5391Z" fill="#DF2C46"/>
<path fill-rule="evenodd" clip-rule="evenodd" d="M24.7456 18.7061L39.0874 20.134L35.8276 25.7813L24.7456 18.7061Z" fill="#FE90A9"/>
<path fill-rule="evenodd" clip-rule="evenodd" d="M36.104 14.9003L39.086 20.1365L34.5079 16.323L36.104 14.9003Z" fill="#F97689"/>
<path fill-rule="evenodd" clip-rule="evenodd" d="M24.7451 18.7058L34.5084 16.3199L39.0878 20.1356L24.7451 18.7058Z" fill="#F97487"/>
<path fill-rule="evenodd" clip-rule="evenodd" d="M20.3736 24.2964L35.8364 25.7684L29.7876 36.244L20.3736 24.2964Z" fill="#F37184"/>
<path fill-rule="evenodd" clip-rule="evenodd" d="M33.5478 48.027L22.2621 49.2752L29.7863 36.2406L33.5478 48.027Z" fill="#AE0E23"/>
<path fill-rule="evenodd" clip-rule="evenodd" d="M45.0813 38.562L35.8307 25.7771L47.7474 31.9769L45.0813 38.562Z" fill="#EF556B"/>
<path fill-rule="evenodd" clip-rule="evenodd" d="M30.2177 57.4415L19.3539 54.3135L22.2602 49.2728L30.2177 57.4415Z" fill="#740011"/>
<path fill-rule="evenodd" clip-rule="evenodd" d="M37.7782 51.8667L33.3549 53.8761L33.5426 48.0234L42.9275 49.4915L37.7782 51.8667Z" fill="#CA2A44"/>
<path fill-rule="evenodd" clip-rule="evenodd" d="M49.698 47.0231L45.0808 38.5617L51.5211 39.0667L49.698 47.0231Z" fill="#F5505F"/>
<path fill-rule="evenodd" clip-rule="evenodd" d="M51.5058 39.0253L51.5211 39.0667L45.0796 38.5637L47.7469 31.9766L51.5058 39.0253Z" fill="#FA6276"/>
<path fill-rule="evenodd" clip-rule="evenodd" d="M50.4216 29.2847L47.7471 31.9774L44.9294 22.3252L50.4216 29.2847Z" fill="#FA6276"/>
<path fill-rule="evenodd" clip-rule="evenodd" d="M51.5058 39.0253L47.7466 31.9771L50.4216 29.2847L51.5058 39.0253Z" fill="#F47689"/>
<path fill-rule="evenodd" clip-rule="evenodd" d="M39.0844 20.1369L42.6584 18.7543L45.3654 20.2487L39.0844 20.1369Z" fill="#FA6276"/>
<path fill-rule="evenodd" clip-rule="evenodd" d="M39.084 20.1387L40.4345 17.8055L42.6584 18.7543L39.084 20.1387Z" fill="#FC9BB4"/>
<path fill-rule="evenodd" clip-rule="evenodd" d="M45.0799 38.5599L42.9266 49.493L49.698 47.0231L45.0799 38.5599Z" fill="#F34259"/>
<path fill-rule="evenodd" clip-rule="evenodd" d="M42.928 49.4906L33.4446 53.8209L42.1463 54.5063L42.928 49.4906Z" fill="#C0192A"/>
<path fill-rule="evenodd" clip-rule="evenodd" d="M33.4401 53.7757L30.1951 57.4404L42.1576 54.5074L33.4401 53.7757Z" fill="#BE1829"/>
<path fill-rule="evenodd" clip-rule="evenodd" d="M33.5491 48.0132L22.2512 49.2723L33.3818 53.7833L33.5491 48.0132Z" fill="#902130"/>
<path fill-rule="evenodd" clip-rule="evenodd" d="M33.434 53.7862L30.2067 57.4318L22.2531 49.2701L33.434 53.7862Z" fill="#7A0012"/>
<path fill-rule="evenodd" clip-rule="evenodd" d="M45.0823 38.5613L33.5446 48.0279L29.7832 36.2448L45.0823 38.5613Z" fill="#C71C2C"/>
<path fill-rule="evenodd" clip-rule="evenodd" d="M45.0808 38.5617L33.5406 48.0256L42.9279 49.4931L45.0808 38.5617Z" fill="#DE2A43"/>
<path fill-rule="evenodd" clip-rule="evenodd" d="M49.698 47.0231L42.9275 49.4903L42.1033 54.5726L49.698 47.0231Z" fill="#DF2C46"/>
<path fill-rule="evenodd" clip-rule="evenodd" d="M47.7471 31.9774L39.086 20.1353L35.8234 25.7795L47.7471 31.9774Z" fill="#EE5268"/>
<path fill-rule="evenodd" clip-rule="evenodd" d="M45.3632 20.2375L39.084 20.1354L44.9297 22.3314L45.3632 20.2375Z" fill="#D63B4F"/>
<path fill-rule="evenodd" clip-rule="evenodd" d="M47.752 31.9908L44.9317 22.3292L39.0855 20.1362L47.752 31.9908Z" fill="#DA3B50"/>
<path fill-rule="evenodd" clip-rule="evenodd" d="M45.0918 38.5588L35.8325 25.7728L29.7791 36.2484L45.0918 38.5588Z" fill="#E63E51"/>
<defs>
<linearGradient id="paint0_linear_5_465" x1="34.5" y1="25.5" x2="25.5" y2="23" gradientUnits="userSpaceOnUse">
<stop stop-color="white"/>
<stop offset="1" stop-color="white" stop-opacity="0"/>
</linearGradient>
</defs>
</svg>
