<svg width="23" height="23" viewBox="0 0 23 23" fill="none" xmlns="http://www.w3.org/2000/svg">
<g opacity="0.6">
<path fill-rule="evenodd" clip-rule="evenodd" d="M6.80508 0C8.06873 0 9.29565 0.354987 10.3516 1.00955C10.7276 0.969378 11.1061 0.949135 11.4856 0.949135C12.8823 0.949135 14.2654 1.22333 15.5558 1.75607C16.8462 2.2888 18.0187 3.06964 19.0063 4.05401C19.994 5.03837 20.7774 6.20699 21.3119 7.49312C21.8464 8.77926 22.1215 10.1577 22.1215 11.5498C22.1215 12.0445 22.0868 12.5375 22.018 13.0253C22.1485 13.2567 22.2653 13.4962 22.3677 13.7425C22.7053 14.5548 22.879 15.4255 22.879 16.3047C22.879 17.1839 22.7053 18.0546 22.3677 18.8669C22.0301 19.6792 21.5353 20.4173 20.9115 21.039C20.2877 21.6607 19.5472 22.1539 18.7322 22.4904C17.9172 22.8268 17.0436 23 16.1615 23C14.9531 23 13.7782 22.6755 12.7542 22.0749C12.3341 22.1252 11.9105 22.1505 11.4856 22.1505C10.0888 22.1505 8.70578 21.8763 7.41537 21.3436C6.12495 20.8109 4.95245 20.03 3.96481 19.0457C2.97717 18.0613 2.19373 16.8927 1.65923 15.6065C1.12472 14.3204 0.849611 12.9419 0.849611 11.5498C0.849611 11.0286 0.888181 10.5093 0.964495 9.99596C0.396175 8.99759 0.0898438 7.86103 0.0898438 6.693C0.0898438 4.91791 0.79734 3.21552 2.05669 1.96033C3.31604 0.705153 5.02409 0 6.80508 0ZM7.44678 10.0763C7.70633 10.5206 8.065 10.8989 8.49481 11.1818C9.06428 11.5544 9.66965 11.8691 10.3018 12.121C11.0087 12.4164 11.5571 12.6669 11.9471 12.8723C12.2769 13.0345 12.5762 13.2524 12.8318 13.5163C13.0253 13.7216 13.1329 13.9932 13.1324 14.2753C13.1407 14.4743 13.1015 14.6723 13.0181 14.8531C12.9346 15.0339 12.8093 15.1922 12.6524 15.3149C12.2335 15.5968 11.7324 15.7304 11.2287 15.6944C10.944 15.6974 10.6598 15.6681 10.3816 15.607C10.156 15.5575 9.9353 15.4877 9.72225 15.3985C9.53569 15.3177 9.2809 15.1966 8.95788 15.0351C8.6981 14.8965 8.40894 14.8221 8.11455 14.8181C7.85033 14.8073 7.59206 14.8985 7.39311 15.0727C7.29822 15.163 7.22406 15.2728 7.17574 15.3946C7.12743 15.5164 7.10612 15.6472 7.11328 15.778C7.10734 16.026 7.18214 16.2692 7.32641 16.4711C7.50019 16.6913 7.72488 16.866 7.98115 16.9801C8.98356 17.4146 10.0702 17.6202 11.162 17.582C11.9566 17.5979 12.7474 17.4691 13.4958 17.2017C14.1167 16.9812 14.6574 16.5799 15.0483 16.0494C15.4321 15.4891 15.6266 14.8207 15.6033 14.1419C15.6182 13.5876 15.4795 13.0399 15.2024 12.5595C14.921 12.1025 14.5419 11.7134 14.0922 11.4203C13.523 11.053 12.919 10.7426 12.289 10.4934C12.2217 10.4604 12.152 10.4324 12.0805 10.4098C11.435 10.143 10.9494 9.92884 10.6238 9.76733C10.3332 9.63107 10.0699 9.44268 9.84721 9.2115C9.65977 9.01471 9.55637 8.75263 9.55895 8.48087C9.54997 8.27387 9.59674 8.06826 9.69438 7.88552C9.79202 7.70279 9.93695 7.54962 10.114 7.44203C10.5336 7.19187 11.0166 7.06834 11.5047 7.0863C11.8793 7.08238 12.2527 7.12879 12.6149 7.2243C13.0084 7.33777 13.3934 7.47867 13.7672 7.64597C13.9188 7.71634 14.0838 7.75346 14.2509 7.75483C14.3724 7.75806 14.4932 7.73554 14.6054 7.68877C14.7176 7.64199 14.8186 7.57201 14.9018 7.48343C14.9898 7.3873 15.0579 7.27479 15.1024 7.15232C15.1469 7.02986 15.1668 6.89983 15.161 6.76967C15.1649 6.51912 15.0774 6.27573 14.9149 6.08503C14.6943 5.85326 14.4206 5.67856 14.1175 5.57597C13.7875 5.45475 13.4462 5.36666 13.0986 5.313C12.6131 5.23336 12.1217 5.19565 11.6297 5.2003C10.8778 5.19585 10.1307 5.32165 9.42171 5.57213C8.76981 5.79222 8.18785 6.18107 7.73505 6.69913C7.29935 7.21502 7.06899 7.87334 7.08798 8.54833C7.07252 9.08021 7.1962 9.6069 7.44678 10.0763Z" fill="#FAD0D6"/>
</g>
</svg>
