<svg width="23" height="23" viewBox="0 0 23 23" fill="none" xmlns="http://www.w3.org/2000/svg">
<g opacity="0.6">
<path d="M14.315 9.26648C14.3227 9.42695 14.1989 9.56333 14.0385 9.57109C13.878 9.57884 13.7416 9.45504 13.7338 9.29457C13.6858 8.3004 13.224 7.82346 12.2694 7.77275C12.1089 7.76422 11.9858 7.62726 11.9943 7.46682C12.0028 7.30639 12.1398 7.18324 12.3002 7.19176C13.5564 7.2585 14.2527 7.97752 14.315 9.26648Z" fill="#FAD0D6"/>
<path d="M15.5089 10.0718C15.6695 10.0755 15.8027 9.94823 15.8063 9.78761C15.8322 8.65057 15.4916 7.69054 14.7841 6.91968C14.0752 6.14744 13.0976 5.71984 11.8602 5.63197C11.6999 5.6206 11.5608 5.74129 11.5494 5.90154C11.538 6.0618 11.6587 6.20094 11.819 6.21232C12.9151 6.29015 13.7528 6.65657 14.3554 7.3131C14.9586 7.9702 15.2472 8.78379 15.2247 9.77439C15.221 9.93501 15.3483 10.0682 15.5089 10.0718Z" fill="#FAD0D6"/>
<path d="M17.3354 10.3759C17.3366 10.5366 17.2074 10.6678 17.0467 10.669C16.8861 10.6702 16.7548 10.541 16.7536 10.3803C16.7404 8.61004 16.2179 7.23398 15.1882 6.22712C14.1549 5.22002 12.8703 4.71113 11.3269 4.70125C11.1662 4.70023 11.0368 4.56915 11.0378 4.4085C11.0389 4.24784 11.1699 4.11843 11.3306 4.11946C13.022 4.13028 14.4513 4.69654 15.5946 5.81079C16.7419 6.93263 17.3211 8.45799 17.3354 10.3759Z" fill="#FAD0D6"/>
<path d="M12.9717 12.9392C12.7542 13.2119 12.3435 13.1773 12.3435 13.1773C9.35443 12.4145 8.55367 9.38752 8.55367 9.38752C8.55367 9.38752 8.51915 8.98024 8.79183 8.75934L9.33027 8.33134C9.59949 8.12425 9.76862 7.62377 9.49595 7.13365C9.34408 6.86097 9.04034 6.3743 8.81599 6.06711C8.57783 5.74266 8.02558 5.07996 8.02213 5.07651C7.75636 4.75897 7.36288 4.68648 6.94869 4.90048C6.94869 4.90048 6.94524 4.90393 6.94179 4.90393C6.54831 5.12483 6.18244 5.42167 5.84073 5.79789L5.83383 5.80479C5.57842 6.11198 5.43 6.41572 5.39548 6.71255C5.38858 6.74707 5.38513 6.79194 5.38858 6.84371C5.38513 6.97487 5.40584 7.10258 5.44726 7.23029L5.46106 7.24064C5.58877 7.6997 5.91322 8.4625 6.61389 9.73613C7.06949 10.5611 7.53546 11.2514 7.99797 11.8312C8.23958 12.1384 8.5157 12.4525 8.83325 12.7735L8.9575 12.8978C9.2785 13.2153 9.59259 13.4914 9.89978 13.733C10.4796 14.1956 11.1665 14.6615 11.9949 15.1171C13.2685 15.8178 14.0313 16.1422 14.4904 16.27L14.5007 16.2838C14.6284 16.3252 14.7561 16.3424 14.8873 16.3424C14.9391 16.3459 14.9839 16.3424 15.0185 16.3355C15.3153 16.301 15.619 16.1526 15.9262 15.8972L15.9331 15.8903C16.3093 15.5486 16.6062 15.1793 16.8271 14.7892C16.8271 14.7892 16.8305 14.7858 16.8305 14.7823C17.0445 14.3681 16.972 13.9747 16.6545 13.7089C16.6545 13.7089 15.9884 13.1532 15.6639 12.915C15.3602 12.6907 14.87 12.3904 14.5974 12.2351C14.1072 11.9624 13.6068 12.1315 13.3997 12.4007L12.9717 12.9392Z" fill="#FAD0D6"/>
<path fill-rule="evenodd" clip-rule="evenodd" d="M11.9086 0.0165095C17.0514 0.0406705 19.3605 1.71813 19.9335 2.24277C21.8284 3.88917 22.8811 7.54093 22.1736 13.3085C21.5511 18.4045 17.9966 19.3085 16.8042 19.6118C16.6874 19.6415 16.5933 19.6655 16.5268 19.687C16.2058 19.7906 13.3652 20.5016 9.67543 20.1909C9.26814 20.6638 8.72625 21.2851 8.33622 21.7062C8.21839 21.8331 8.10807 21.9585 8.00264 22.0782C7.46882 22.6848 7.06043 23.1488 6.43786 22.9556C5.82003 22.7658 5.85454 21.827 5.85454 21.827L5.85799 19.511H5.85454C0.456286 17.9923 0.535672 12.3973 0.5978 9.40823C0.656477 6.41917 1.23634 4.00998 2.88274 2.36358C5.84073 -0.349357 11.9086 0.0165095 11.9086 0.0165095ZM16.1918 17.9986C17.2053 17.7634 20.0356 17.1066 20.5582 12.8943C21.1554 8.07592 20.3373 4.78658 18.7358 3.4094C18.2526 2.97105 16.1678 1.66291 11.8154 1.6422C11.8154 1.6422 6.66221 1.30394 4.15982 3.56817C2.76884 4.9419 2.29942 6.98523 2.24765 9.48071L2.24201 9.73492C2.1836 12.2869 2.08065 16.7846 6.49308 18.0095C6.49308 18.0095 6.47582 21.5474 6.47237 21.858C6.47237 22.0755 6.50689 22.2239 6.63114 22.255C6.72088 22.2791 6.8555 22.2308 6.9694 22.1169C7.69768 21.3817 10.0344 18.5652 10.0344 18.5652C13.1684 18.7723 15.6604 18.1511 15.9297 18.0648C15.9917 18.045 16.0809 18.0243 16.1918 17.9986Z" fill="#FAD0D6"/>
</g>
</svg>
