<svg width="40" height="95" viewBox="0 0 40 95" fill="none" xmlns="http://www.w3.org/2000/svg">

<path d="M9.54185 80.7474L18.701 89.501C18.8752 89.6604 19.0806 89.7853 19.3055 89.8687C19.7514 90.0438 20.2517 90.0438 20.6977 89.8687C20.9225 89.7853 21.1279 89.6604 21.3022 89.501L30.4613 80.7474C30.6321 80.5841 30.7676 80.3904 30.86 80.1771C30.9524 79.9638 31 79.7352 31 79.5044C31 79.0381 30.8062 78.591 30.4613 78.2613C30.1163 77.9317 29.6485 77.7465 29.1607 77.7465C28.6729 77.7465 28.205 77.9317 27.8601 78.2613L21.8334 84.0387L21.8334 70.7507C21.8334 70.2864 21.6404 69.8411 21.2969 69.5128C20.9533 69.1845 20.4874 69 20.0016 69C19.5157 69 19.0498 69.1845 18.7063 69.5128C18.3627 69.8411 18.1697 70.2864 18.1697 70.7507L18.1697 84.0387L12.143 78.2613C11.9727 78.0973 11.7701 77.967 11.5469 77.8781C11.3237 77.7892 11.0843 77.7435 10.8424 77.7435C10.6006 77.7435 10.3612 77.7892 10.138 77.8781C9.91474 77.967 9.71214 78.0973 9.54185 78.2613C9.37016 78.4241 9.23388 78.6177 9.14088 78.8311C9.04788 79.0444 9 79.2732 9 79.5044C9 79.7355 9.04788 79.9643 9.14088 80.1777C9.23388 80.391 9.37016 80.5846 9.54185 80.7474Z" fill="white" fill-opacity="0.8"/>
<circle cx="20" cy="55" r="2" fill="#CF4559"/>
<circle cx="20" cy="63" r="2" fill="#D9D9D9"/>
<circle cx="20" cy="46" r="2" fill="#DF2C46" fill-opacity="0.7"/>
<circle cx="20" cy="37" r="2" fill="#DF2C46" fill-opacity="0.4"/>
<circle cx="20" cy="28" r="2" fill="#DF2C46" fill-opacity="0.3"/>
<circle cx="20" cy="19" r="2" fill="#DF2C46" fill-opacity="0.12"/>
<defs>

</defs>
</svg>
