<svg width="19" height="20" viewBox="0 0 19 20" fill="none" xmlns="http://www.w3.org/2000/svg">
<path fill-rule="evenodd" clip-rule="evenodd" d="M16.727 10.426C16.055 10.139 15.317 9.977 14.541
 9.977C13.188 9.977 11.963 10.481 10.997 11.286L6.30102 6.591L10.437 2.456C12.393 0.500996 15.575
  0.500996 17.531 2.456C19.486 4.412 19.486 7.594 17.531 9.549L16.727 10.426ZM8.96802 15.549C8.96802
   16.325 9.12902 17.064 9.41702 17.736L8.59702 18.56C6.64102 20.514 3.42202 20.477 1.46602
    18.523C-0.489977 16.567 -0.489977 13.385 1.46602 11.43L5.51302 7.379L10.215 12.08C9.44702
     13.036 8.96802 14.232 8.96802 15.549ZM13.984 11.148V19.951C11.788 19.674 10.083 17.821 10.083
      15.55C10.083 13.278 11.788 11.425 13.984 11.148ZM18.999 15.549C18.999 17.821 17.295 19.674
       15.098 19.951V11.148C17.295 11.425 18.999 13.278 18.999 15.549Z" fill="#3A4059"/>
</svg>
