<svg width="29" height="19" viewBox="0 0 29 19" fill="none" xmlns="http://www.w3.org/2000/svg">
<path fill-rule="evenodd" clip-rule="evenodd" d="M27.808 5.27602C27.732
5.05502 27.462 4.88402 27.237 4.88402C26.261 4.88402 25.285 4.88402 24.31
4.88402C24.084 4.88402 23.814 5.05502 23.738 5.27602C23.664 5.49202 23.608
5.68502 23.571 5.86602L21.615 1.48302C21.293 0.595024 20.439 -0.000976562
19.49 -0.000976562H8.53902C7.59102 -0.000976562 6.73702 0.595024 6.41402
1.48302L4.45902 5.86602C4.42202 5.68502 4.36602 5.49202 4.29102 5.27602C4.21502
5.05502 3.94502 4.88402 3.72002 4.88402C2.74402 4.88402 1.76802 4.88402 0.793023
4.88402C0.567023 4.88402 0.297023 5.05502 0.221023 5.27602C-0.0749766 6.13502 -0.0749766
6.62602 0.221023 7.48602C0.297023 7.70602 0.567023 7.87702 0.793023 7.87702C1.76802
7.87702 2.74402 7.87702 3.72002 7.87702C3.72302 7.87702 3.72602 7.87602 3.72802
7.87602L3.68402 7.99902C3.08702 8.19602 2.65602 8.75502 2.65602 9.41502V13.922V14.294V18.282C2.65602
18.678 2.97902 18.999 3.37802 18.999H7.00902C7.40702 18.999 7.73002 18.678 7.73002
18.282V15.787H20.3V18.282C20.3 18.678 20.623 18.999 21.021 18.999H24.652C25.05
18.999 25.373 18.678 25.373 18.282V14.294V13.922V9.41502C25.373 8.75502 24.942
8.19602 24.346 7.99902L24.302 7.87602C24.304 7.87602 24.307 7.87702 24.31
7.87702C25.285 7.87702 26.261 7.87702 27.237 7.87702C27.462 7.87702 27.732
7.70602 27.808 7.48602C28.105 6.62602 28.105 6.13502 27.808 5.27602ZM8.81602
2.64102H19.212L21.494 7.92202H6.53402L8.81602 2.64102ZM9.21702 12.346H6.18002C5.52802
12.346 5.00002 11.821 5.00002 11.173C5.00002 10.524 5.52802 9.99802 6.18002
9.99802H9.21702C9.86902 9.99802 10.397 10.524 10.397 11.173C10.397 11.821
9.86902 12.346 9.21702 12.346ZM21.85 12.346H18.812C18.16 12.346 17.632
11.821 17.632 11.173C17.632 10.524 18.16 9.99802 18.812 9.99802H21.85C22.501 9.99802 23.029 10.524 23.029
11.173C23.029 11.821 22.501 12.346 21.85 12.346Z" fill="#3A4059"/>
</svg>
