<svg width="22" height="22" viewBox="0 0 22 22" fill="none" xmlns="http://www.w3.org/2000/svg">
<g clip-path="url(#clip0_124_454)">
<path d="M19.8 0.999907C18.3 -0.400092 16.1 -0.300092 14.6
0.999907C14.2 1.39991 13.9 1.89991 13.7 2.29991C12.9 4.29991
10.6 7.49991 9.2 9.09991C9 9.39991 9 9.79991 9.2 9.99991L11
11.7999C11.3 12.0999 11.7 11.9999 11.9 11.7999C13.5 10.2999
16.7 8.09991 18.7 7.29991C19.2 7.09991 19.6 6.79991 20 6.49991C21.5
4.89991 21.4 2.49991 19.8 0.999907Z" fill="#3A4059"/>
<path d="M12.8 12.6998C12 13.3998 10.9 13.3998 10.1 12.6998L8.29999
10.8998C7.59999 10.1998 7.59999 8.99983 8.29999 8.29983C8.29999
8.29983 8.69999 7.79983 9.39999 6.99983C7.09999 5.19983 4.59999
3.99983 3.39999 5.19983C0.399993 8.19983 12.9 20.5998 15.9
17.6998C17.1 16.4998 15.8 13.9998 14.1 11.6998C13.6 11.9998
13.1 12.3998 12.8 12.6998Z" fill="#3A4059"/>
<path d="M8.8 18.4998C7.1 20.1998 4.3 20.1998 2.6 18.4998C1.8
17.6998 1.3 16.5998 1.3 15.3998C1.3 13.5998 2.4 12.0998 3.9
11.3998C3.6 10.9998 3.4 10.6998 3.2 10.2998C1.3 11.1998 0 13.0998
0 15.3998C0 18.4998 2.5 21.0998 5.7 21.0998C7.9 21.0998 9.8 19.8998
10.8 17.8998C10.5 17.6998 10.1 17.3998 9.7 17.1998C9.5 17.6998 9.2
18.0998 8.8 18.4998Z" fill="#3A4059"/>
</g>
<defs>
<clipPath id="clip0_124_454">
<rect width="21.1" height="21.1" fill="white"/>
</clipPath>
</defs>
</svg>
