<svg width="25" height="21" viewBox="0 0 25 21" fill="none" xmlns="http://www.w3.org/2000/svg">
<path d="M23.9404 7.07899H18.7539L15.8445 0.438137C15.6827
0.0686461 15.2509 -0.100207 14.8802 0.0612476C14.5095 0.222605
14.3402 0.653036 14.5021 1.02258L17.1555 7.07904H7.84454L10.4979
1.02258C10.6597 0.653036 10.4905 0.222653 10.1198 0.0612476C9.74913 -0.100207
9.31729 0.0685488 9.15548 0.438137L6.24611 7.07899H1.05964C0.381176 7.07899
-0.122338 7.69127 0.026099 8.33578L2.7573 20.1944C2.86574 20.6653 3.29514
21 3.79084 21H21.2092C21.7049 21 22.1343 20.6653 22.2427 20.1944L24.9739
8.33578C25.1223 7.69132 24.6188 7.07899 23.9404 7.07899ZM6.3839 9.31823C6.28605
9.31823 6.18659 9.29857 6.09113 9.257C5.72042 9.09564 5.55114 8.66526 5.71305
8.29567L6.26325 7.03976H7.86168L7.05543 8.88006C6.93527 9.15454 6.66622 9.31823
6.3839 9.31823ZM8.8379 17.106C8.8379 17.5092 8.50997 17.8361 8.10548
17.8361C7.70099 17.8361 7.37306 17.5092 7.37306 17.106V11.7518C7.37306
11.3486 7.70099 11.0217 8.10548 11.0217C8.50997 11.0217 8.8379 11.3486
8.8379 11.7518V17.106ZM13.2324 17.106C13.2324 17.5092 12.9045 17.8361
12.5 17.8361C12.0955 17.8361 11.7676 17.5092 11.7676 17.106V11.7518C11.7676
11.3486 12.0955 11.0217 12.5 11.0217C12.9045 11.0217 13.2324 11.3486 13.2324
11.7518V17.106ZM17.6269 17.106C17.6269 17.5092 17.299 17.8361 16.8945
17.8361C16.49 17.8361 16.1621 17.5092 16.1621 17.106V11.7518C16.1621
11.3486 16.49 11.0217 16.8945 11.0217C17.299 11.0217 17.6269 11.3486
17.6269 11.7518V17.106ZM18.9088 9.257C18.8134 9.29857 18.714 9.31823
18.6161 9.31823C18.3338 9.31823 18.0647 9.15459 17.9445 8.88011L17.1383
7.03981H18.7367L19.2869 8.29572C19.4488 8.66526 19.2795 9.09564 18.9088
9.257Z" fill="#3A4059"/>
</svg>
