<svg width="34" height="28" viewBox="0 0 34 28" fill="none" xmlns="http://www.w3.org/2000/svg">
<path d="M17.3557 1.6897C11.2121 1.6897 6.14361 6.75818 6.14361 12.9018C6.14361
19.0454 11.0585 23.9603 17.2021 23.9603C23.3457 23.9603 28.2606 19.0454 28.2606
12.9018C28.2606 6.75818 23.4993 1.6897 17.3557 1.6897ZM17.3557 21.3492C12.748
21.3492 8.90823 17.5095 8.90823 12.9018C8.90823 8.29408 12.748 4.45432 17.3557
4.45432C21.9634 4.45432 25.8032 8.29408 25.8032 12.9018C25.8032 17.5095 21.9634
21.3492 17.3557 21.3492Z" fill="#3A4059"/>
<path d="M17.3557 6.75757C13.9767 6.75757 11.2121 9.52219 11.2121 12.9012C11.2121
16.2802 13.9767 19.0448 17.3557 19.0448C20.7347 19.0448 23.4993 16.2802 23.4993
12.9012C23.4993 9.52219 20.7347 6.75757 17.3557 6.75757Z" fill="#3A4059"/>
<path d="M32.8683 13.8231V0.307181C32.8683 0.15359 32.7147 0 32.7147 0C32.5611 0
32.4075 0 32.4075 0.15359C30.7181 2.30385 29.7965 5.06848 29.7965 7.8331V12.748C29.7965 13.3624
30.2573 13.8231 30.7181 13.8231H31.1788C30.718 18.1237 30.4109 24.2673 30.4109
25.0352C30.4109 26.1103 31.1788 27.0319 31.9468 27.0319C32.7147 27.0319 33.4827
26.1103 33.4827 25.0352C33.6363 24.2673 33.3291 18.1237 32.8683 13.8231Z" fill="#3A4059"/>
<path d="M4.45412 11.2121C5.37566 10.7514 5.83643 9.82981 5.83643 8.75468L5.52925
1.68953C5.52925 1.38235 5.22207 1.22876 5.06848 1.22876C4.7613 1.22876 4.60771 1.53594
4.60771 1.68953L4.91489 7.21878C4.91489 7.52596 4.60771 7.83314 4.30053 7.83314C3.83976
7.83314 3.68617 7.67955 3.68617 7.37237L3.53258 1.68953C3.53258 1.38235 3.2254 1.22876
2.91822 1.22876C2.61103 1.22876 2.45744 1.38235 2.45744 1.68953L2.30385 7.37237C2.30385
7.67955 1.99667 7.98673 1.68949 7.98673C1.38231 7.83314 1.07513 7.67955 1.07513
7.37237L1.38231 1.84312C1.38231 1.53594 1.22872 1.38235 0.921542 1.38235C0.614361
1.38235 0.460771 1.53594 0.460771 1.84312L0 8.60109C0 9.67622 0.614361 10.5978
1.38231 11.0585C1.99667 11.3657 2.30385 11.9801 2.15026 12.748C1.68949 17.0486
1.38231 24.2673 1.38231 25.0352C1.38231 26.1104 2.15026 27.0319 2.91822 27.0319C3.68617
27.0319 4.45412 26.1104 4.45412 25.0352C4.45412 24.2673 4.14694 17.2021 3.68617
12.748C3.68617 12.1337 3.99335 11.5193 4.45412 11.2121Z" fill="#3A4059"/>
</svg>
