<svg width="24" height="22" viewBox="0 0 24 22" fill="none" xmlns="http://www.w3.org/2000/svg">
<g clip-path="url(#clip0_126_16)">
<path fill-rule="evenodd" clip-rule="evenodd" d="M20.912 4.0241H20.446V3.2831C20.446
3.1021 20.3 2.9571 20.12 2.9571H18.293C18.113 2.9571 17.967 3.1021 17.967
3.2831V4.0241H16.348V3.1961C16.348 1.9311 15.319 0.9021 14.055 0.9021H9.945C8.681
0.9021 7.652 1.9311 7.652 3.1961V4.0241H6.033V3.2831C6.033 3.1021 5.887 2.9571
5.706 2.9571H3.88C3.7 2.9571 3.554 3.1021 3.554 3.2831V4.0241H3.088C1.383 4.0241
0 5.4081 0 7.1141V18.0071C0 19.7141 1.383 21.0971 3.088 21.0971H20.912C22.617
21.0971 24 19.7141 24 18.0071V7.1141C24 5.4081 22.617 4.0241 20.912 4.0241ZM8.956
3.1961C8.956 2.6511 9.4 2.2061 9.945 2.2061H14.055C14.6 2.2061 15.043 2.6511 15.043
3.1961V4.0241H8.956V3.1961ZM12 18.1271C8.928 18.1271 6.438 15.6351 6.438 12.5611C6.438
9.4861 8.928 6.9951 12 6.9951C15.072 6.9951 17.562 9.4861 17.562 12.5611C17.562 15.6351
15.072 18.1271 12 18.1271ZM16.176 13.9271C16.176 14.0151 16.142 14.0971 16.081
14.1591C16.019 14.2201 15.937 14.2541 15.85 14.2541L13.696 14.2561V16.4121C13.696
16.5921 13.55 16.7381 13.37 16.7381H10.63C10.45 16.7381 10.304 16.5921 10.304
16.4121V14.2591L8.153 14.2611C8.066 14.2611 7.984 14.2271 7.922 14.1661C7.861
14.1051 7.827 14.0221 7.827 13.9361L7.824 11.1931C7.824 11.0141 7.97 10.8671
8.15 10.8671L10.304 10.8651V8.7091C10.304 8.5291 10.45 8.3831 10.63 8.3831H13.37C13.55
8.3831 13.696 8.5291 13.696 8.7091V10.8621L15.847 10.8601C16.027 10.8601 16.173
11.0051 16.173 11.1861L16.176 13.9271Z" fill="#3A4059"/>
</g>
<defs>
<clipPath id="clip0_126_16">
<rect width="24" height="22" fill="white"/>
</clipPath>
</defs>
</svg>
