<svg width="29" height="19" viewBox="0 0 29 19" fill="none" xmlns="http://www.w3.org/2000/svg">
<g clip-path="url(#clip0_126_14)">
<path fill-rule="evenodd" clip-rule="evenodd" d="M27.301
9.61404C28.288 9.96204 29 10.887 29 11.983C29 12.986 28.402 13.847
27.544 14.253L28.956 18.448L27.345 18.98L26.451 16.325L25.558 18.98L23.946
18.448L25.358 14.253C24.5 13.847 23.902 12.986 23.902 11.983C23.902 10.887
24.615 9.96204 25.601 9.61404V7.14904L14.5 11.542L0 5.78104L14.5 0.019043L29
5.78104L27.301 6.47404V9.61404ZM22.146 10.314V12.511C22.146 14.91 18.859 16.719
14.5 16.719C10.141 16.719 6.853 14.91 6.853 12.511V10.314L14.5 13.355L22.146
10.314Z" fill="#3A4059"/>
</g>
<defs>
<clipPath id="clip0_126_14">
<rect width="29" height="19" fill="white"/>
</clipPath>
</defs>
</svg>
