<svg width="21" height="21" viewBox="0 0 21 21" fill="none" xmlns="http://www.w3.org/2000/svg">
<path fill-rule="evenodd" clip-rule="evenodd" d="M19.656 7.80507C19.198 8.26207
18.456 8.26207 17.998 7.80507L12.197 2.00707C11.739 1.55007 11.739 0.807074 12.197
0.350074C12.654 -0.106926 13.397 -0.106926 13.854 0.350074L15.509 2.00307L16.752
0.761074C16.971 0.541074 17.361 0.541074 17.58 0.761074L19.245 2.42507C19.355
2.53507 19.417 2.68307 19.417 2.83907C19.417 2.99507 19.355 3.14307 19.245
3.25307L18.002 4.49507L19.656 6.14807C20.113 6.60607 20.113 7.34707 19.656
7.80507ZM17.998 11.1181C17.54 11.5751 16.798 11.5751 16.341 11.1181L13.854
8.63307L8.63899 13.8571L11.125 16.3421C11.583 16.8001 11.583 17.5411 11.125
17.9991C10.667 18.4571 9.92499 18.4571 9.46799 17.9991L2.00899 10.5441C1.55099
10.0871 1.55099 9.34507 2.00899 8.88807C2.46599 8.43007 3.20899 8.43007 3.66599
8.88807L6.15299 11.3731L11.368 6.14807L8.88199 3.66407C8.42399 3.20607 8.42399
2.46407 8.88199 2.00707C9.33899 1.55007 10.082 1.55007 10.539 2.00707L17.998
9.46107C18.456 9.91908 18.456 10.6611 17.998 11.1181ZM7.80999 17.9991C8.26799
18.4571 8.26799 19.1981 7.80999 19.6551C7.35199 20.1131 6.60999 20.1131
6.15299 19.6551L4.49899 18.0021L3.25799 19.2421C3.14399 19.3561 2.99399
19.4141 2.84399 19.4141C2.69399 19.4141 2.54399 19.3561 2.42899 19.2421L0.76499
17.5791C0.65499 17.4691 0.59299 17.3201 0.59299 17.1651C0.59299 17.0091 0.65499
16.8601 0.76499 16.7511L2.00599 15.5101L0.35099 13.8571C-0.10601 13.4001 -0.10601
12.6581 0.35099 12.2001C0.80899 11.7431 1.55099 11.7431 2.00899 12.2001L7.80999
17.9991Z" fill="#3A4059"/>
</svg>
