<svg width="23" height="18" viewBox="0 0 23 18" fill="none" xmlns="http://www.w3.org/2000/svg">
<path fill-rule="evenodd" clip-rule="evenodd" d="M22.691 17.6631C22.493 17.8211
22.239 17.8801 21.993 17.8241C20.021 17.3711 16.561 16.8451 13.28 17.6541C15.177
15.8461 17.856 15.5261 19.481 15.5221C20.639 15.5191 21.58 14.5701 21.58
13.4071V3.01808H22.177C22.631 3.01808 23 3.39008 23 3.84708V17.0161C23 17.2691
22.887 17.5051 22.691 17.6631ZM19.478 14.2351C17.563 14.2401 14.353 14.6421
12.139 16.9751V3.97108C12.139 3.81708 12.178 3.67208 12.252 3.55208C14.069 0.605076
17.562 0.157076 19.482 0.153076H19.484C19.701 0.153076 19.906 0.238076 20.06
0.394076C20.216 0.550076 20.302 0.759076 20.302 0.982076V13.4071C20.302 13.8631
19.933 14.2341 19.478 14.2351ZM3.522 14.2361C3.067 14.2341 2.697 13.8631 2.697
13.4071V0.982076C2.697 0.759076 2.783 0.550076 2.94 0.394076C3.094 0.238076 3.299
0.153076 3.516 0.153076H3.518C5.438 0.157076 8.931 0.605076 10.748 3.55208C10.822
3.67208 10.861 3.81708 10.861 3.97108V16.9751C8.647 14.6421 5.437 14.2401 3.522
14.2361ZM9.72 17.6541C6.438 16.8451 2.979 17.3711 1.007 17.8231C0.761 17.8801
0.506 17.8211 0.309 17.6631C0.113 17.5051 0 17.2691 0 17.0161V3.84708C0 3.39008
0.369 3.01808 0.823 3.01808H1.42V13.4071C1.42 14.5701 2.361 15.5191 3.518
15.5221C5.143 15.5261 7.823 15.8461 9.72 17.6541Z" fill="#3A4059"/>
</svg>
