<svg width="22" height="21" viewBox="0 0 22 21" fill="none" xmlns="http://www.w3.org/2000/svg">
<path d="M21.4581 9.25262L12.299 0.498983C12.1248 0.339596 11.9194 0.214655 11.6945 0.13133C11.2486 -0.0437741 10.7483 -0.0437742 10.3023 0.13133C10.0775 0.214655 9.87206 0.339595 9.69784 0.498983L0.538723 9.25262C0.367926 9.41585 0.232443 9.60964 0.140009 9.82292C0.0475742 10.0362 -1.79475e-06 10.2648 -1.83512e-06 10.4956C-1.91663e-06 10.9619 0.193783 11.409 0.538722 11.7387C0.883661 12.0683 1.3515 12.2535 1.83932 12.2535C2.32713 12.2535 2.79497 12.0683 3.13991 11.7387L9.16661 5.96125L9.16661 19.2493C9.16661 19.7136 9.35961 20.1589 9.70314 20.4872C10.0467 20.8155 10.5126 21 10.9984 21C11.4843 21 11.9502 20.8156 12.2937 20.4872C12.6373 20.1589 12.8303 19.7136 12.8303 19.2493L12.8303 5.96125L18.857 11.7387C19.0273 11.9027 19.2299 12.033 19.4531 12.1219C19.6763 12.2108 19.9157 12.2565 20.1576 12.2565C20.3994 12.2565 20.6388 12.2108 20.862 12.1219C21.0853 12.033 21.2879 11.9027 21.4581 11.7387C21.6298 11.5759 21.7661 11.3823 21.8591 11.1689C21.9521 10.9556 22 10.7268 22 10.4956C22 10.2645 21.9521 10.0357 21.8591 9.82235C21.7661 9.60901 21.6298 9.41537 21.4581 9.25262Z" fill="white" fill-opacity="0.8"/>
</svg>
