<svg width="22" height="21" viewBox="0 0 22 21" fill="none" xmlns="http://www.w3.org/2000/svg">
<path d="M0.541852 11.7474L9.70097 20.501C9.87518 20.6604 10.0806 20.7853 10.3055 20.8687C10.7514 21.0438 11.2517 21.0438 11.6977 20.8687C11.9225 20.7853 12.1279 20.6604 12.3022 20.501L21.4613 11.7474C21.6321 11.5841 21.7676 11.3904 21.86 11.1771C21.9524 10.9638 22 10.7352 22 10.5044C22 10.0381 21.8062 9.59102 21.4613 9.26135C21.1163 8.93168 20.6485 8.74648 20.1607 8.74648C19.6729 8.74648 19.205 8.93168 18.8601 9.26135L12.8334 15.0387L12.8334 1.75073C12.8334 1.28641 12.6404 0.8411 12.2969 0.512775C11.9533 0.184451 11.4874 9.88307e-07 11.0016 9.45835e-07C10.5157 9.03362e-07 10.0498 0.184451 9.70627 0.512774C9.36274 0.8411 9.16974 1.28641 9.16974 1.75073L9.16974 15.0387L3.14304 9.26135C2.97275 9.09725 2.77015 8.96701 2.54692 8.87813C2.3237 8.78925 2.08427 8.74348 1.84244 8.74348C1.60062 8.74348 1.36119 8.78925 1.13797 8.87813C0.914743 8.96701 0.712144 9.09725 0.541852 9.26135C0.370156 9.4241 0.233876 9.61773 0.140878 9.83107C0.0478792 10.0444 -9.69586e-07 10.2732 -9.89791e-07 10.5044C-1.01e-06 10.7355 0.0478791 10.9643 0.140878 11.1777C0.233876 11.391 0.370156 11.5846 0.541852 11.7474Z" fill="white" fill-opacity="0.8"/>
</svg>
