<svg width="63" height="85" viewBox="0 0 63 85" fill="none" xmlns="http://www.w3.org/2000/svg">
<circle cx="31.5" cy="31.5" r="31.5" fill="black" fill-opacity="0.1"/>
<path d="M41.4581 21.2526L32.299 12.499C32.1248 12.3396 31.9194 12.2147 31.6945 12.1313C31.2486 11.9562 30.7483 11.9562 30.3023 12.1313C30.0775 12.2147 29.8721 12.3396 29.6978 12.499L20.5387 21.2526C20.3679 21.4159 20.2324 21.6096 20.14 21.8229C20.0476 22.0362 20 22.2648 20 22.4956C20 22.9619 20.1938 23.409 20.5387 23.7387C20.8837 24.0683 21.3515 24.2535 21.8393 24.2535C22.3271 24.2535 22.795 24.0683 23.1399 23.7387L29.1666 17.9613L29.1666 31.2493C29.1666 31.7136 29.3596 32.1589 29.7031 32.4872C30.0467 32.8155 30.5126 33 30.9984 33C31.4843 33 31.9502 32.8156 32.2937 32.4872C32.6373 32.1589 32.8303 31.7136 32.8303 31.2493L32.8303 17.9613L38.857 23.7387C39.0273 23.9027 39.2299 24.033 39.4531 24.1219C39.6763 24.2108 39.9157 24.2565 40.1576 24.2565C40.3994 24.2565 40.6388 24.2108 40.862 24.1219C41.0853 24.033 41.2879 23.9027 41.4581 23.7387C41.6298 23.5759 41.7661 23.3823 41.8591 23.1689C41.9521 22.9556 42 22.7268 42 22.4956C42 22.2645 41.9521 22.0357 41.8591 21.8223C41.7661 21.609 41.6298 21.4154 41.4581 21.2526Z" fill="white" fill-opacity="0.8"/>
<circle cx="31" cy="47" r="2" transform="rotate(-180 31 47)" fill="#D9D9D9"/>
<circle cx="31" cy="39" r="2" transform="rotate(-180 31 39)" fill="#D9D9D9"/>
<circle cx="31" cy="56" r="2" transform="rotate(-180 31 56)" fill="#D9D9D9" fill-opacity="0.8"/>
<circle cx="31" cy="65" r="2" transform="rotate(-180 31 65)" fill="#D9D9D9" fill-opacity="0.4"/>
<circle cx="31" cy="74" r="2" transform="rotate(-180 31 74)" fill="#D9D9D9" fill-opacity="0.2"/>
<circle cx="31" cy="83" r="2" transform="rotate(-180 31 83)" fill="#D9D9D9" fill-opacity="0.1"/>
</svg>
