<svg width="82" height="76" viewBox="0 0 82 76" fill="none" xmlns="http://www.w3.org/2000/svg">
<path fill-rule="evenodd" clip-rule="evenodd" d="M23.0538 41.0867L28.5941 54.2476L38.2799 37.4792L23.0538 41.0867Z" fill="#D01B28"/>
<path fill-rule="evenodd" clip-rule="evenodd" d="M26.1754 22.1924L46.0386 24.0749L31.7896 15.0002L26.1754 22.1924Z" fill="#FC9BB4"/>
<path fill-rule="evenodd" clip-rule="evenodd" d="M29.5462 22.4399L46.8884 24.3625L34.0435 16.0205L29.5462 22.4399Z" fill="url(#paint0_linear_58_1080)"/>
<path fill-rule="evenodd" clip-rule="evenodd" d="M14.7186 50.8304L24.8592 60.7071L28.5982 54.2339L14.7186 50.8304Z" fill="#902130"/>
<path fill-rule="evenodd" clip-rule="evenodd" d="M16.0644 38.8488L16.6686 45.0547L23.0597 41.0885L15.401 31.5996L16.0644 38.8488Z" fill="#CA2A44"/>
<path fill-rule="evenodd" clip-rule="evenodd" d="M13.7964 22.4901L26.1756 22.1904L21.4774 15.3561L13.7964 22.4901Z" fill="#F5505F"/>
<path fill-rule="evenodd" clip-rule="evenodd" d="M21.5329 15.3475L21.477 15.3571L26.1729 22.1936L31.789 14.9998L21.5329 15.3475Z" fill="#FA6276"/>
<path fill-rule="evenodd" clip-rule="evenodd" d="M33.067 10.3009L31.7881 15.0032L44.336 11.9374L33.067 10.3009Z" fill="#FA6276"/>
<path fill-rule="evenodd" clip-rule="evenodd" d="M52.7743 9.20776L53.3338 4.74549L51.4374 6.91108L49.7596 12.1735L51.0546 3.68182L47.5317 8.4716L46.3478 10.1671L47.3159 10.7443L49.7667 12.1716L51.9401 13.8573L56.3911 5.8577L52.7743 9.20776Z" fill="#DD9B99"/>
<path fill-rule="evenodd" clip-rule="evenodd" d="M21.5324 15.3479L31.788 15.0008L33.0665 10.2992L21.5324 15.3479Z" fill="#F47689"/>
<path fill-rule="evenodd" clip-rule="evenodd" d="M54.7899 15.0618L58.263 16.9841L62.0345 10.2166L54.7899 15.0618Z" fill="#C93B35"/>
<path fill-rule="evenodd" clip-rule="evenodd" d="M50.2078 16.862L49.7674 12.171L46.3735 10.1211L50.2078 16.862Z" fill="#FA6276"/>
<path fill-rule="evenodd" clip-rule="evenodd" d="M59.0291 11.341L55.3692 13.4325L54.7917 15.0689L62.0345 10.2165L59.0291 11.341Z" fill="#DD9B99"/>
<path fill-rule="evenodd" clip-rule="evenodd" d="M49.7595 12.1732L51.4372 6.91099L51.0544 3.68188L49.7595 12.1732Z" fill="#CA6E55"/>
<path fill-rule="evenodd" clip-rule="evenodd" d="M50.2024 16.8494L51.936 13.8524L49.7676 12.1714L50.2024 16.8494Z" fill="#FC9BB4"/>
<path fill-rule="evenodd" clip-rule="evenodd" d="M55.8846 9.77819L55.7249 10.801L55.6464 11.3832L59.7992 8.33978L55.8846 9.77819Z" fill="#CDA993"/>
<path fill-rule="evenodd" clip-rule="evenodd" d="M53.9503 8.1099L53.3337 4.74585L52.7742 9.20801L53.9503 8.1099Z" fill="#AF2A1B"/>
<path fill-rule="evenodd" clip-rule="evenodd" d="M54.824 15.0797L55.3687 13.4321L59.0286 11.3406L59.7993 8.33972L55.6466 11.3831L55.725 10.8009L55.8848 9.77813L56.392 5.85864L51.9415 13.8601L54.824 15.0797Z" fill="#99151C"/>
<path fill-rule="evenodd" clip-rule="evenodd" d="M26.178 22.1891L15.3976 31.602L13.7972 22.4893L26.178 22.1891Z" fill="#F34259"/>
<path fill-rule="evenodd" clip-rule="evenodd" d="M15.4003 31.598L16.6727 44.9192L10.3224 35.6865L15.4003 31.598Z" fill="#C0192A"/>
<path fill-rule="evenodd" clip-rule="evenodd" d="M16.7264 44.8954L14.7331 50.8545L10.3143 35.6748L16.7264 44.8954Z" fill="#BE1829"/>
<path fill-rule="evenodd" clip-rule="evenodd" d="M23.068 41.0757L28.6014 54.242L16.7558 44.9657L23.068 41.0757Z" fill="#B0122B"/>
<path fill-rule="evenodd" clip-rule="evenodd" d="M16.7205 44.9087L14.7359 50.8368L28.6044 54.2406L16.7205 44.9087Z" fill="#A5061C"/>
<path fill-rule="evenodd" clip-rule="evenodd" d="M26.1771 22.1887L23.0528 41.0919L38.2739 37.509L26.1771 22.1887Z" fill="#E84154"/>
<path fill-rule="evenodd" clip-rule="evenodd" d="M26.1765 22.1902L23.0572 41.0929L15.3974 31.601L26.1765 22.1902Z" fill="#DE2A43"/>
<path fill-rule="evenodd" clip-rule="evenodd" d="M13.7975 22.4885L15.4003 31.598L10.2749 35.7765L13.7975 22.4885Z" fill="#DF2C46"/>
<path fill-rule="evenodd" clip-rule="evenodd" d="M31.7887 15.0028L50.2123 16.8327L46.0234 24.083L31.7887 15.0028Z" fill="#FE90A9"/>
<path fill-rule="evenodd" clip-rule="evenodd" d="M46.3804 10.1163L50.2099 16.8375L44.3297 11.943L46.3804 10.1163Z" fill="#F97689"/>
<path fill-rule="evenodd" clip-rule="evenodd" d="M31.788 15.0028L44.3306 11.9378L50.2127 16.8351L31.788 15.0028Z" fill="#F97487"/>
<path fill-rule="evenodd" clip-rule="evenodd" d="M26.1732 22.1782L46.036 24.0643L38.2636 37.5128L26.1732 22.1782Z" fill="#F37184"/>
<path fill-rule="evenodd" clip-rule="evenodd" d="M43.0949 52.6366L28.5982 54.2413L38.2659 37.5085L43.0949 52.6366Z" fill="#AE0E23"/>
<path fill-rule="evenodd" clip-rule="evenodd" d="M57.9107 40.4881L46.03 24.0777L61.3371 32.0339L57.9107 40.4881Z" fill="#EF556B"/>
<path fill-rule="evenodd" clip-rule="evenodd" d="M38.8176 64.7209L24.8624 60.7078L28.5969 54.2363L38.8176 64.7209Z" fill="#740011"/>
<path fill-rule="evenodd" clip-rule="evenodd" d="M48.5303 57.5657L42.8478 60.1461L43.0902 52.6332L55.1453 54.5157L48.5303 57.5657Z" fill="#CA2A44"/>
<path fill-rule="evenodd" clip-rule="evenodd" d="M63.8416 51.3485L57.9124 40.4882L66.1853 41.135L63.8416 51.3485Z" fill="#F5505F"/>
<path fill-rule="evenodd" clip-rule="evenodd" d="M66.1645 41.0823L66.1842 41.1355L57.9099 40.4913L61.3376 32.0352L66.1645 41.0823Z" fill="#FA6276"/>
<path fill-rule="evenodd" clip-rule="evenodd" d="M64.7718 28.5792L61.3356 32.0363L57.7181 19.6467L64.7718 28.5792Z" fill="#FA6276"/>
<path fill-rule="evenodd" clip-rule="evenodd" d="M66.164 41.0827L61.3367 32.0363L64.7735 28.5797L66.164 41.0827Z" fill="#F47689"/>
<path fill-rule="evenodd" clip-rule="evenodd" d="M50.2085 16.8387L54.8 15.063L58.2771 16.9808L50.2085 16.8387Z" fill="#FA6276"/>
<path fill-rule="evenodd" clip-rule="evenodd" d="M50.208 16.8408L51.9432 13.8455L54.7997 15.063L50.208 16.8408Z" fill="#FC9BB4"/>
<path fill-rule="evenodd" clip-rule="evenodd" d="M57.9119 40.4854L55.1435 54.5198L63.8421 51.3478L57.9119 40.4854Z" fill="#F34259"/>
<path fill-rule="evenodd" clip-rule="evenodd" d="M55.1463 54.5149L42.9635 60.0756L54.141 60.9534L55.1463 54.5149Z" fill="#C0192A"/>
<path fill-rule="evenodd" clip-rule="evenodd" d="M42.9583 60.0167L38.7891 64.7216L54.1563 60.954L42.9583 60.0167Z" fill="#BE1829"/>
<path fill-rule="evenodd" clip-rule="evenodd" d="M43.098 52.6184L28.5842 54.2373L42.8818 60.0257L43.098 52.6184Z" fill="#902130"/>
<path fill-rule="evenodd" clip-rule="evenodd" d="M42.9499 60.0284L38.8031 64.7092L28.5874 54.2332L42.9499 60.0284Z" fill="#7A0012"/>
<path fill-rule="evenodd" clip-rule="evenodd" d="M57.9135 40.4849L43.0905 52.6392L38.2613 37.5147L57.9135 40.4849Z" fill="#C71C2C"/>
<path fill-rule="evenodd" clip-rule="evenodd" d="M57.9123 40.4868L43.0869 52.6371L55.1444 54.5187L57.9123 40.4868Z" fill="#DE2A43"/>
<path fill-rule="evenodd" clip-rule="evenodd" d="M63.8428 51.3476L55.1459 54.5159L54.0861 61.0396L63.8428 51.3476Z" fill="#DF2C46"/>
<path fill-rule="evenodd" clip-rule="evenodd" d="M61.3355 32.0361L50.2119 16.836L46.0192 24.0824L61.3355 32.0361Z" fill="#EE5268"/>
<path fill-rule="evenodd" clip-rule="evenodd" d="M58.2744 16.9665L50.2079 16.8368L57.7171 19.6546L58.2744 16.9665Z" fill="#D63B4F"/>
<path fill-rule="evenodd" clip-rule="evenodd" d="M61.3415 32.0535L57.7207 19.6513L50.211 16.8375L61.3415 32.0535Z" fill="#DA3B50"/>
<path fill-rule="evenodd" clip-rule="evenodd" d="M57.9245 40.4829L46.0331 24.072L38.2547 37.5206L57.9245 40.4829Z" fill="#E63E51"/>
<defs>
<linearGradient id="paint0_linear_58_1080" x1="44.3192" y1="23.7211" x2="32.7602" y2="20.5062" gradientUnits="userSpaceOnUse">
<stop stop-color="white"/>
<stop offset="1" stop-color="white" stop-opacity="0"/>
</linearGradient>
</defs>
</svg>
