<svg width="23" height="25" viewBox="0 0 23 25" fill="none" xmlns="http://www.w3.org/2000/svg">
<g opacity="0.6">
<path d="M8.04255 7.13028C8.24639 7.13862 8.4719 7.14817 8.68616 7.62444C8.83259 7.95003 9.07896 8.55703 9.27531 9.04076C9.41999 9.39721 9.53751 9.68673 9.56785 9.74741C9.63936 9.89043 9.687 10.0574 9.59167 10.2484C9.5774 10.277 9.5642 10.3039 9.55158 10.3297C9.47993 10.4759 9.42729 10.5833 9.30595 10.7254C9.2584 10.7809 9.20923 10.8407 9.16006 10.9005C9.06134 11.0206 8.9626 11.1407 8.87688 11.2262C8.73341 11.3688 8.58441 11.5237 8.75125 11.8098C8.91815 12.0961 9.49216 13.0323 10.3424 13.7903C11.2558 14.6047 12.0493 14.9492 12.4522 15.1241C12.5313 15.1584 12.5954 15.1863 12.6424 15.2098C12.9284 15.3528 13.0953 15.329 13.2621 15.1379C13.429 14.9471 13.9768 14.3031 14.1675 14.017C14.3582 13.7307 14.5489 13.7784 14.811 13.8737C15.0733 13.9691 16.4794 14.6611 16.7654 14.8041C16.8212 14.832 16.8733 14.8572 16.9217 14.8805C17.1213 14.9768 17.2561 15.0419 17.3136 15.1379C17.3851 15.2575 17.3851 15.8299 17.1468 16.4976C16.9084 17.1655 15.7407 17.8095 15.2163 17.8572C15.1658 17.8618 15.1157 17.8677 15.0641 17.8738C14.5794 17.9308 13.9677 18.0027 11.7842 17.1417C9.09747 16.0821 7.32593 13.4565 6.95994 12.914C6.92993 12.8695 6.90936 12.8391 6.89853 12.8246L6.89534 12.8204C6.74112 12.6143 5.73068 11.2639 5.73068 9.86661C5.73068 8.54948 6.37811 7.85906 6.67599 7.5414C6.69635 7.51969 6.71507 7.49972 6.73185 7.48142C6.99386 7.1952 7.30378 7.12358 7.49444 7.12358C7.50489 7.12358 7.51534 7.12358 7.52579 7.12358C7.70586 7.12356 7.88502 7.12354 8.04255 7.13028Z" fill="#FAD0D6"/>
<path fill-rule="evenodd" clip-rule="evenodd" d="M1.63956 18.1127C0.623495 16.3808 0.0923697 14.4179 0.0923697 12.3858C0.0923697 6.08158 5.24197 0.955078 11.5462 0.955078C14.6175 0.955078 17.4809 2.15588 19.6516 4.30347C21.7992 6.47415 23 9.33761 23 12.4089C23 18.7131 17.8504 23.8396 11.5462 23.8396C9.62952 23.8396 7.73594 23.3778 6.07329 22.4541L0 24.0474L1.63956 18.1127ZM3.48695 17.4661L3.71787 17.8125L2.74799 21.3225L6.3504 20.3758L6.69679 20.5836C8.15161 21.4611 9.83735 21.923 11.5462 21.923C16.7882 21.923 21.0602 17.6509 21.0602 12.4089C21.0602 9.86873 20.0673 7.46713 18.2661 5.66592C16.488 3.88781 14.0863 2.89484 11.5462 2.89484C6.30422 2.89484 2.03213 7.14383 2.03213 12.4089C2.03213 14.187 2.54016 15.942 3.48695 17.4661Z" fill="#FAD0D6"/>
</g>
</svg>
